<svg width="356" height="143" viewBox="0 0 356 143" fill="none" xmlns="http://www.w3.org/2000/svg">
<g clip-path="url(#clip0_1_835)">
<path d="M271.667 225.5C320.636 176.623 320.636 97.3774 271.667 48.5002C222.697 -0.376965 143.303 -0.376952 94.3333 48.5002C45.3641 97.3774 45.364 176.623 94.3333 225.5C143.303 274.377 222.697 274.377 271.667 225.5Z" fill="#002255"/>
<path d="M266.667 225.5C315.636 176.623 315.636 97.3774 266.667 48.5002C217.697 -0.376965 138.303 -0.376952 89.3333 48.5002C40.3641 97.3774 40.364 176.623 89.3333 225.5C138.303 274.377 217.697 274.377 266.667 225.5Z" fill="#0065FF"/>
<path d="M178.001 241.121C236.162 241.121 283.311 194.061 283.311 136.009C283.311 77.9565 236.162 30.896 178.001 30.896C119.839 30.896 72.6899 77.9565 72.6899 136.009C72.6899 194.061 119.839 241.121 178.001 241.121Z" fill="#FAFAFA"/>
<path d="M283.311 136.009C283.311 136.009 283.311 135.44 283.23 134.314C283.148 133.188 283.23 131.505 283.009 129.311C282.594 122.911 281.589 116.562 280.009 110.346C278.869 105.859 277.428 101.454 275.694 97.1602C273.657 92.0414 271.207 87.0961 268.368 82.3729C261.423 70.834 252.347 60.7155 241.622 52.5546C228.605 42.6697 213.452 35.9602 197.374 32.9621C183.747 30.4594 169.762 30.621 156.197 33.438C151.433 34.4701 146.74 35.8077 142.149 37.4424C122.611 44.5463 105.616 57.264 93.3079 73.9927C90.0961 78.3491 87.2342 82.9521 84.7491 87.7586C83.4583 90.1612 82.3535 92.6567 81.2604 95.1638C80.1673 97.6709 79.1905 100.271 78.3649 102.917C76.5801 108.213 75.242 113.649 74.3645 119.167C73.4819 124.746 73.0193 130.384 72.9807 136.032C73.0217 141.683 73.4803 147.324 74.3529 152.908C75.2435 158.424 76.5813 163.859 78.3532 169.158C79.1905 171.793 80.2371 174.346 81.2488 176.9C82.2605 179.454 83.4815 181.914 84.7374 184.317C87.2223 189.126 90.0882 193.729 93.3079 198.083C105.613 214.817 122.608 227.539 142.149 234.645C146.74 236.279 151.433 237.617 156.197 238.649C160.841 239.618 165.546 240.273 170.279 240.611C179.337 241.294 188.446 240.795 197.374 239.125C213.452 236.127 228.605 229.417 241.622 219.532C252.35 211.375 261.427 201.256 268.368 189.714C271.205 184.99 273.655 180.045 275.694 174.927C279.825 164.665 282.294 153.812 283.009 142.776C283.207 140.582 283.172 138.899 283.23 137.773C283.288 136.647 283.311 136.067 283.311 136.067C283.311 136.067 283.311 136.647 283.311 137.773C283.311 138.899 283.311 140.582 283.148 142.776C282.512 153.843 280.089 164.735 275.973 175.031C273.948 180.174 271.506 185.143 268.67 189.888C261.742 201.485 252.665 211.66 241.924 219.869C228.861 229.814 213.649 236.571 197.502 239.601C188.533 241.292 179.382 241.807 170.279 241.133C165.523 240.796 160.795 240.141 156.127 239.171C151.334 238.142 146.614 236.801 141.998 235.155C122.344 228.025 105.247 215.241 92.866 198.419C89.6346 194.043 86.7571 189.416 84.2606 184.584C82.9582 182.17 81.8419 179.639 80.7022 177.121C79.5626 174.602 78.6323 171.99 77.795 169.332C76.0111 164.011 74.6655 158.553 73.7715 153.013C71.9263 141.775 71.9263 130.312 73.7715 119.074C74.67 113.558 76.0156 108.123 77.795 102.824C78.6439 100.166 79.6905 97.6012 80.7139 95.0361C81.7372 92.471 82.9582 89.9987 84.2606 87.5844C86.7653 82.7544 89.6465 78.1283 92.8776 73.7489C105.253 56.9292 122.347 44.1492 141.998 37.0245C146.611 35.3806 151.327 34.039 156.115 33.0085C160.787 32.0397 165.519 31.3844 170.279 31.0469C179.378 30.3724 188.526 30.8875 197.491 32.579C213.641 35.5952 228.857 42.3538 241.913 52.3109C252.653 60.5249 261.73 70.7033 268.659 82.3033C273.868 91.0596 277.784 100.52 280.288 110.392C281.839 116.631 282.809 122.999 283.183 129.416C283.358 131.61 283.3 133.293 283.346 134.419C283.393 135.544 283.311 136.009 283.311 136.009Z" fill="#262626"/>
<path d="M267.856 132.201C264.519 132.34 261.798 132.201 261.786 131.911C261.775 131.621 264.461 131.226 267.798 131.04C271.136 130.855 273.857 130.971 273.88 131.319C273.903 131.667 271.171 132.062 267.856 132.201Z" fill="#262626"/>
<path d="M88.2842 129.428C91.6217 129.671 94.3079 130.112 94.2963 130.403C94.2846 130.693 91.5519 130.774 88.2144 130.577C84.8769 130.379 82.179 129.95 82.2023 129.602C82.2256 129.253 84.9467 129.126 88.2842 129.428Z" fill="#262626"/>
<path d="M93.3426 105.598C96.4941 106.759 98.9594 107.92 98.8663 108.164C98.7733 108.407 96.122 107.78 92.9589 106.689C89.7959 105.598 87.3306 104.461 87.4352 104.136C87.5399 103.811 90.2029 104.461 93.3426 105.598Z" fill="#262626"/>
<path d="M104.634 84.0674C107.356 86.0058 109.425 87.77 109.286 88.0138C109.146 88.2575 106.751 86.9111 103.995 85.0192C101.239 83.1272 99.1688 81.363 99.3433 81.0728C99.5177 80.7826 101.902 82.129 104.634 84.0674Z" fill="#262626"/>
<path d="M121.275 66.3318C123.38 68.9201 124.903 71.1719 124.682 71.3692C124.462 71.5665 122.519 69.6282 120.38 67.063C118.24 64.4979 116.705 62.2577 116.973 62.0372C117.24 61.8167 119.17 63.7434 121.275 66.3318Z" fill="#262626"/>
<path d="M142.091 53.68C143.416 56.7442 144.289 59.321 144.01 59.4835C143.73 59.646 142.405 57.2317 141.033 54.1907C139.66 51.1497 138.788 48.5729 139.102 48.3872C139.416 48.2015 140.73 50.6273 142.091 53.68Z" fill="#262626"/>
<path d="M165.511 47.0988C165.965 50.4068 166.104 53.1229 165.802 53.1693C165.5 53.2157 164.86 50.5693 164.36 47.273C163.86 43.9766 163.72 41.2489 164.058 41.2025C164.395 41.1561 165.058 43.7909 165.511 47.0988Z" fill="#262626"/>
<path d="M189.862 47.0181C189.42 50.326 188.827 52.984 188.536 52.9492C188.246 52.9144 188.315 50.1868 188.711 46.8788C189.106 43.5708 189.699 40.9012 190.036 40.9476C190.374 40.994 190.304 43.6985 189.862 47.0181Z" fill="#262626"/>
<path d="M213.341 53.4366C212.026 56.5124 210.736 58.9035 210.457 58.7874C210.177 58.6713 211.003 56.083 212.271 52.9839C213.538 49.8849 214.841 47.5054 215.155 47.6447C215.469 47.784 214.666 50.3724 213.341 53.4366Z" fill="#262626"/>
<path d="M234.226 65.9372C232.133 68.5487 230.249 70.5103 230.016 70.3246C229.784 70.1389 231.261 67.8523 233.319 65.2175C235.377 62.5827 237.249 60.5748 237.529 60.8417C237.808 61.1087 236.284 63.3372 234.226 65.9372Z" fill="#262626"/>
<path d="M251.006 83.5569C248.285 85.5068 245.948 86.8997 245.773 86.6559C245.599 86.4122 247.634 84.6131 250.32 82.6167C253.006 80.6203 255.344 79.2391 255.553 79.5176C255.762 79.7962 253.727 81.6069 251.006 83.5569Z" fill="#262626"/>
<path d="M262.437 105.053C259.298 106.213 256.623 106.898 256.553 106.631C256.483 106.364 258.879 105.157 262.03 103.961C265.182 102.766 267.775 102.058 267.903 102.383C268.031 102.708 265.577 103.892 262.437 105.053Z" fill="#262626"/>
<path d="M267.682 128.754C264.345 129.021 261.624 128.998 261.6 128.754C261.577 128.51 264.252 127.976 267.577 127.593C270.903 127.21 273.636 127.303 273.659 127.651C273.683 128 270.985 128.487 267.682 128.754Z" fill="#262626"/>
<path d="M137.102 22.2949L136.742 22.4574L135.672 22.8869C134.741 23.2815 133.346 23.7574 131.567 24.5351C126.553 26.6269 121.686 29.0504 116.996 31.7894C114.019 33.5072 110.867 35.5617 107.553 37.8715C104.239 40.1813 100.855 42.8741 97.471 45.9035C82.6139 58.9745 71.2652 75.5445 64.4568 94.1072C62.8636 98.3554 61.6659 102.511 60.6309 106.399C59.5959 110.287 58.8982 114.002 58.3749 117.391C57.5257 122.746 57.0323 128.151 56.898 133.571C56.805 135.498 56.898 136.983 56.898 137.993C56.898 138.481 56.898 138.852 56.898 139.154C56.9085 139.285 56.9085 139.417 56.898 139.548C56.8828 139.421 56.8828 139.293 56.898 139.165C56.898 138.875 56.898 138.492 56.898 138.005C56.898 136.995 56.7701 135.509 56.8283 133.582C56.8699 128.142 57.3013 122.712 58.1191 117.333C58.6075 113.92 59.3634 110.218 60.3053 106.283C61.3563 102.1 62.6216 97.9745 64.0963 93.9215C70.8713 75.2345 82.2866 58.569 97.2733 45.4856C100.681 42.4562 104.146 39.8446 107.425 37.4652C110.705 35.0858 113.937 33.1126 116.949 31.418C121.671 28.7072 126.579 26.3335 131.636 24.3145C133.416 23.5717 134.846 23.1538 135.8 22.7708L136.893 22.3994C136.96 22.3595 137.03 22.3246 137.102 22.2949Z" fill="#002255"/>
<path d="M172.105 15.5163C170.909 15.7642 169.696 15.9232 168.477 15.9922C166.221 16.2243 163.127 16.5609 159.708 17.002C156.29 17.443 153.208 17.9073 150.975 18.2555C149.779 18.501 148.566 18.6562 147.347 18.7198C148.504 18.3175 149.695 18.0222 150.905 17.8377C153.127 17.385 156.208 16.8511 159.627 16.41C163.046 15.969 166.174 15.6904 168.442 15.5627C169.659 15.4329 170.885 15.4174 172.105 15.5163Z" fill="white"/>
<g opacity="0.4">
<path d="M93.8312 199.197C93.8312 199.197 148.405 285.158 233.063 241.133C321.442 195.169 272.601 89.813 272.601 89.813C272.601 89.813 314.186 173.778 228.039 228.516C206.584 242.154 183.222 242.166 165.407 240.379C119.88 235.829 93.8312 199.197 93.8312 199.197Z" fill="#262626"/>
</g>
<path d="M201.819 77.8765C202.272 91.2057 201.869 104.55 200.613 117.828C200.15 122.635 199.607 127.492 197.747 131.958C195.887 136.424 192.72 140.518 188.256 142.405C183.792 144.292 178.081 143.509 174.974 139.816L201.819 77.8765Z" fill="#E0E0E0"/>
<path d="M174.461 119.012L207.55 63.3953L187.582 126.188L177.377 129.228L174.461 119.012Z" fill="#0065FF"/>
<g opacity="0.4">
<path d="M207.55 63.3948L183.007 120.226L187.582 126.187L207.55 63.3948Z" fill="#262626"/>
</g>
<path d="M177.377 139.856C183.257 139.856 188.025 135.098 188.025 129.228C188.025 123.359 183.257 118.601 177.377 118.601C171.496 118.601 166.729 123.359 166.729 129.228C166.729 135.098 171.496 139.856 177.377 139.856Z" fill="#FAFAFA"/>
<path d="M188.025 129.228C187.929 128.364 187.785 127.506 187.592 126.659C186.976 124.37 185.609 122.353 183.711 120.929C182.317 119.881 180.682 119.2 178.955 118.945C177.229 118.691 175.466 118.873 173.828 119.473C172.885 119.807 172 120.284 171.204 120.888C170.356 121.502 169.613 122.247 169.002 123.096C167.695 124.875 166.99 127.023 166.99 129.228C166.99 131.433 167.695 133.581 169.002 135.36C170.222 137.013 171.9 138.275 173.828 138.993C175.204 139.496 176.67 139.707 178.132 139.612C179.595 139.517 181.021 139.118 182.32 138.441C183.619 137.763 184.761 136.822 185.674 135.678C186.588 134.534 187.251 133.212 187.622 131.797C187.817 130.95 187.961 130.092 188.055 129.228C188.117 130.108 188.039 130.992 187.824 131.847C187.274 134.24 185.909 136.368 183.963 137.869C182.628 138.903 181.067 139.608 179.408 139.926C177.499 140.29 175.527 140.138 173.697 139.484C172.703 139.142 171.77 138.644 170.932 138.009C170.043 137.368 169.262 136.588 168.62 135.701C167.235 133.841 166.488 131.585 166.488 129.268C166.488 126.951 167.235 124.695 168.62 122.835C169.265 121.95 170.045 121.171 170.932 120.527C171.774 119.901 172.706 119.407 173.697 119.062C175.526 118.404 177.499 118.251 179.408 118.62C181.436 119.009 183.308 119.974 184.8 121.398C186.293 122.822 187.343 124.645 187.824 126.649C188.024 127.493 188.092 128.363 188.025 129.228Z" fill="#003380"/>
<path d="M185.177 130.822C186.044 126.541 183.27 122.369 178.981 121.504C174.693 120.638 170.513 123.407 169.646 127.688C168.779 131.968 171.552 136.14 175.841 137.006C180.13 137.871 184.31 135.103 185.177 130.822Z" fill="#0043AA"/>
</g>
<defs>
<clipPath id="clip0_1_835">
<rect width="354.667" height="143" fill="white" transform="translate(0.666626)"/>
</clipPath>
</defs>
</svg>
