<svg width="354" height="143" viewBox="0 0 354 143" fill="none" xmlns="http://www.w3.org/2000/svg">
<g clip-path="url(#clip0_1_1085)">
<path d="M169.89 8.09249C169.89 9.69304 170.365 11.2576 171.254 12.5884C172.143 13.9192 173.407 14.9565 174.886 15.569C176.365 16.1815 177.992 16.3417 179.561 16.0295C181.131 15.7172 182.573 14.9465 183.705 13.8147C184.837 12.683 185.607 11.2411 185.92 9.67127C186.232 8.10148 186.072 6.47435 185.459 4.99564C184.847 3.51693 183.81 2.25304 182.479 1.36383C181.148 0.474611 179.583 0 177.983 0C175.836 0 173.778 0.852599 172.26 2.37024C170.743 3.88787 169.89 5.94623 169.89 8.09249Z" fill="#0065FF"/>
<path opacity="0.9" d="M131.093 18.5587C131.093 20.083 131.545 21.5731 132.391 22.8405C133.238 24.108 134.442 25.0958 135.85 25.6791C137.259 26.2625 138.808 26.4151 140.303 26.1177C141.798 25.8203 143.172 25.0863 144.249 24.0084C145.327 22.9306 146.061 21.5573 146.359 20.0623C146.656 18.5672 146.503 17.0176 145.92 15.6093C145.337 14.201 144.349 12.9973 143.082 12.1504C141.814 11.3036 140.324 10.8516 138.8 10.8516C136.756 10.8516 134.795 11.6636 133.35 13.1089C131.905 14.5543 131.093 16.5146 131.093 18.5587Z" fill="#0065FF"/>
<path opacity="0.8" d="M106.969 45.2717C106.966 46.7174 107.392 48.1315 108.193 49.335C108.994 50.5386 110.134 51.4775 111.469 52.0328C112.804 52.5882 114.273 52.7351 115.691 52.4549C117.11 52.1747 118.413 51.4801 119.436 50.4589C120.46 49.4377 121.157 48.1359 121.44 46.7182C121.723 45.3004 121.58 43.8306 121.027 42.4946C120.475 41.1587 119.538 40.0166 118.336 39.2131C117.134 38.4096 115.721 37.9807 114.275 37.9807C112.34 37.9807 110.484 38.7484 109.115 40.1153C107.745 41.4821 106.973 43.3366 106.969 45.2717Z" fill="#0065FF"/>
<path opacity="0.7" d="M105.89 88.0462C109.696 88.0462 112.78 84.9614 112.78 81.156C112.78 77.3507 109.696 74.2659 105.89 74.2659C102.085 74.2659 99 77.3507 99 81.156C99 84.9614 102.085 88.0462 105.89 88.0462Z" fill="#0065FF"/>
<path opacity="0.6" d="M107.139 115.021C107.139 116.308 107.52 117.565 108.235 118.635C108.95 119.705 109.966 120.538 111.154 121.031C112.343 121.523 113.651 121.652 114.913 121.401C116.174 121.15 117.333 120.53 118.243 119.621C119.153 118.711 119.772 117.552 120.023 116.29C120.274 115.028 120.146 113.72 119.653 112.532C119.161 111.343 118.327 110.327 117.257 109.613C116.188 108.898 114.93 108.516 113.643 108.516C111.918 108.516 110.264 109.202 109.044 110.422C107.824 111.641 107.139 113.296 107.139 115.021Z" fill="#0065FF"/>
<path opacity="0.5" d="M131.277 142.72C131.277 143.94 131.639 145.132 132.317 146.146C132.994 147.16 133.957 147.95 135.084 148.417C136.21 148.883 137.45 149.006 138.646 148.768C139.842 148.53 140.941 147.943 141.803 147.08C142.665 146.218 143.253 145.119 143.49 143.923C143.728 142.727 143.606 141.488 143.14 140.361C142.673 139.234 141.883 138.271 140.869 137.594C139.855 136.916 138.663 136.555 137.443 136.555C135.808 136.555 134.24 137.204 133.083 138.361C131.927 139.517 131.277 141.085 131.277 142.72Z" fill="#0065FF"/>
<path opacity="0.3" d="M214.299 141.827C214.296 142.879 214.605 143.909 215.187 144.785C215.77 145.662 216.599 146.346 217.571 146.751C218.542 147.156 219.612 147.263 220.645 147.06C221.677 146.856 222.626 146.351 223.371 145.608C224.117 144.865 224.625 143.917 224.831 142.885C225.038 141.853 224.933 140.783 224.531 139.811C224.129 138.838 223.448 138.007 222.573 137.421C221.698 136.836 220.669 136.524 219.617 136.524C218.919 136.522 218.228 136.658 217.583 136.923C216.938 137.189 216.351 137.579 215.857 138.072C215.363 138.564 214.971 139.15 214.704 139.794C214.436 140.438 214.299 141.129 214.299 141.827Z" fill="#0065FF"/>
<path opacity="0.2" d="M238.268 112.817C238.265 113.79 238.551 114.742 239.089 115.553C239.627 116.363 240.394 116.996 241.293 117.371C242.191 117.745 243.18 117.845 244.135 117.657C245.09 117.469 245.967 117.002 246.656 116.315C247.346 115.628 247.816 114.751 248.007 113.797C248.198 112.843 248.101 111.853 247.729 110.954C247.358 110.055 246.727 109.286 245.918 108.745C245.109 108.204 244.158 107.915 243.185 107.915C241.884 107.915 240.635 108.431 239.713 109.35C238.792 110.269 238.272 111.515 238.268 112.817Z" fill="#0065FF"/>
<path opacity="0.1" d="M246.206 80.4473C246.206 81.3405 246.471 82.2137 246.967 82.9564C247.464 83.6992 248.169 84.278 248.994 84.6199C249.82 84.9617 250.728 85.0511 251.604 84.8769C252.48 84.7026 253.285 84.2725 253.916 83.6408C254.548 83.0092 254.978 82.2045 255.152 81.3284C255.327 80.4523 255.237 79.5442 254.895 78.7189C254.553 77.8937 253.975 77.1883 253.232 76.692C252.489 76.1958 251.616 75.9309 250.723 75.9309C249.525 75.9309 248.376 76.4067 247.529 77.2537C246.682 78.1007 246.206 79.2495 246.206 80.4473Z" fill="#0065FF"/>
<path opacity="0.05" d="M239.039 42.9131C241.312 42.9131 243.154 41.0705 243.154 38.7975C243.154 36.5245 241.312 34.6819 239.039 34.6819C236.766 34.6819 234.923 36.5245 234.923 38.7975C234.923 41.0705 236.766 42.9131 239.039 42.9131Z" fill="#0065FF"/>
<path opacity="0.01" d="M207.254 15.399C207.254 16.1368 207.473 16.858 207.883 17.4714C208.293 18.0848 208.876 18.5629 209.557 18.8453C210.239 19.1276 210.989 19.2015 211.712 19.0576C212.436 18.9136 213.101 18.5584 213.622 18.0367C214.144 17.515 214.499 16.8503 214.643 16.1267C214.787 15.4031 214.713 14.6531 214.431 13.9715C214.149 13.2899 213.671 12.7073 213.057 12.2974C212.444 11.8875 211.722 11.6687 210.985 11.6687C210.494 11.6667 210.008 11.7618 209.555 11.9485C209.101 12.1353 208.689 12.4099 208.342 12.7567C207.996 13.1035 207.721 13.5156 207.534 13.9691C207.347 14.4226 207.252 14.9085 207.254 15.399Z" fill="#0065FF"/>
<path d="M183.004 43.4643L169.487 43.5499L170.155 34.2076L182.224 34.136L183.004 43.4643Z" fill="#0065FF" stroke="#002255"/>
<path d="M213.156 51.1749L207.113 58.3315L197.493 48.8258L204.58 42.6996L213.156 51.1749Z" fill="#0065FF" stroke="#002255"/>
<path d="M213.654 85.8844L213.569 72.3684L222.911 73.0506L222.983 85.1047L213.654 85.8844Z" fill="#0065FF" stroke="#002255"/>
<path d="M205.944 116.051L198.788 110.009L208.294 100.389L214.419 107.461L205.944 116.051Z" fill="#0065FF" stroke="#002255"/>
<path d="M172.015 125.879L171.235 116.55L184.751 116.465L184.069 125.807L172.015 125.879Z" fill="#0065FF" stroke="#002255"/>
<path d="M141.068 108.839L147.11 101.683L156.73 111.189L149.658 117.315L141.068 108.839Z" fill="#0065FF" stroke="#002255"/>
<path d="M131.241 74.9097L140.569 74.1161L140.654 87.632L131.312 86.9638L131.241 74.9097Z" fill="#0065FF" stroke="#002255"/>
<path d="M148.294 43.9633L155.436 50.0053L145.93 59.6251L139.819 52.5389L148.294 43.9633Z" fill="#0065FF" stroke="#002255"/>
<path d="M176.564 98.4194C180.126 98.4011 183.603 97.3276 186.555 95.3345C189.507 93.3414 191.802 90.5181 193.15 87.2213C194.498 83.9244 194.839 80.3019 194.13 76.8114C193.421 73.3208 191.693 70.1189 189.164 67.6099C186.636 65.101 183.421 63.3977 179.925 62.7151C176.429 62.0325 172.809 62.4013 169.523 63.7749C166.236 65.1485 163.431 67.4653 161.461 70.4326C159.49 73.3998 158.443 76.8845 158.453 80.4464C158.459 82.8166 158.932 85.1624 159.846 87.3493C160.76 89.5362 162.097 91.5213 163.779 93.1908C165.462 94.8604 167.457 96.1816 169.651 97.0788C171.845 97.976 174.194 98.4316 176.564 98.4194ZM160.641 80.4464C160.623 77.3186 161.533 74.2555 163.255 71.6447C164.978 69.0338 167.436 66.9924 170.319 65.7786C173.201 64.5647 176.379 64.233 179.451 64.8253C182.522 65.4175 185.349 66.9073 187.573 69.1061C189.798 71.3048 191.321 74.1139 191.949 77.1781C192.577 80.2423 192.283 83.4239 191.103 86.3207C189.922 89.2174 187.91 91.6992 185.319 93.4522C182.729 95.2052 179.677 96.1506 176.549 96.1689C172.356 96.1895 168.326 94.5455 165.343 91.5978C162.361 88.6501 160.67 84.6395 160.641 80.4464ZM176.564 98.3732C180.128 98.3549 183.606 97.2801 186.559 95.285C189.512 93.2898 191.808 90.4637 193.154 87.1642C194.501 83.8646 194.84 80.2398 194.126 76.748C193.413 73.2563 191.68 70.0544 189.148 67.5474C186.615 65.0403 183.395 63.3406 179.896 62.6633C176.397 61.986 172.776 62.3614 169.491 63.7421C166.205 65.1227 163.403 67.4467 161.438 70.4201C159.473 73.3934 158.434 76.8826 158.453 80.4464C158.459 82.8166 158.932 85.1624 159.846 87.3493C160.76 89.5362 162.097 91.5213 163.779 93.1908C165.462 94.8604 167.457 96.1816 169.651 97.0788C171.845 97.976 174.194 98.4316 176.564 98.4194V98.3732ZM160.641 80.4464C160.623 77.3186 161.533 74.2555 163.255 71.6447C164.978 69.0338 167.436 66.9924 170.319 65.7786C173.201 64.5647 176.379 64.233 179.451 64.8253C182.522 65.4175 185.349 66.9073 187.573 69.1061C189.798 71.3048 191.321 74.1139 191.949 77.1781C192.577 80.2423 192.283 83.4239 191.103 86.3207C189.922 89.2174 187.91 91.6992 185.319 93.4522C182.729 95.2052 179.677 96.1506 176.549 96.1689C172.356 96.1895 168.326 94.5455 165.343 91.5978C162.361 88.6501 160.67 84.6395 160.641 80.4464ZM176.564 98.3732C180.128 98.3549 183.606 97.2801 186.559 95.285C189.512 93.2898 191.808 90.4637 193.154 87.1642C194.501 83.8646 194.84 80.2398 194.126 76.748C193.413 73.2563 191.68 70.0544 189.148 67.5474C186.615 65.0403 183.395 63.3406 179.896 62.6633C176.397 61.986 172.776 62.3614 169.491 63.7421C166.205 65.1227 163.403 67.4467 161.438 70.4201C159.473 73.3934 158.434 76.8826 158.453 80.4464C158.459 82.8166 158.932 85.1624 159.846 87.3493C160.76 89.5362 162.097 91.5213 163.779 93.1908C165.462 94.8604 167.457 96.1816 169.651 97.0788C171.845 97.976 174.194 98.4316 176.564 98.4194V98.3732ZM160.641 80.4464C160.623 77.3186 161.533 74.2555 163.255 71.6447C164.978 69.0338 167.436 66.9924 170.319 65.7786C173.201 64.5647 176.379 64.233 179.451 64.8253C182.522 65.4175 185.349 66.9073 187.573 69.1061C189.798 71.3048 191.321 74.1139 191.949 77.1781C192.577 80.2423 192.283 83.4239 191.103 86.3207C189.922 89.2174 187.91 91.6992 185.319 93.4522C182.729 95.2052 179.677 96.1506 176.549 96.1689C172.356 96.1895 168.326 94.5455 165.343 91.5978C162.361 88.6501 160.67 84.6395 160.641 80.4464ZM176.672 118.319C184.181 118.276 191.509 116.008 197.729 111.8C203.949 107.592 208.781 101.634 211.615 94.6797C214.448 87.7254 215.156 80.0869 213.648 72.7305C212.14 65.374 208.484 58.63 203.143 53.3514C197.802 48.0728 191.015 44.4967 183.641 43.0754C176.268 41.6541 168.638 42.4515 161.717 45.3666C154.797 48.2818 148.896 53.1838 144.762 59.4528C140.628 65.7217 138.445 73.0758 138.491 80.5851C138.515 85.5734 139.522 90.5081 141.455 95.107C143.387 99.7059 146.207 103.879 149.752 107.388C153.298 110.896 157.501 113.672 162.12 115.555C166.739 117.439 171.684 118.394 176.672 118.366V118.319ZM155.647 80.4772C155.623 76.3616 156.819 72.3313 159.086 68.8958C161.352 65.4603 164.586 62.7739 168.379 61.1765C172.172 59.579 176.354 59.1422 180.395 59.9212C184.436 60.7002 188.156 62.66 191.083 65.553C194.01 68.4459 196.014 72.1419 196.841 76.1736C197.668 80.2054 197.281 84.3917 195.728 88.2034C194.176 92.015 191.528 95.2808 188.12 97.5876C184.711 99.8944 180.695 101.139 176.58 101.163C171.071 101.188 165.777 99.0306 161.854 95.1629C157.932 91.2952 155.7 86.0319 155.647 80.5235V80.4772ZM158.453 80.4772C158.468 84.0398 159.539 87.5178 161.53 90.4719C163.521 93.426 166.343 95.7235 169.64 97.0742C172.937 98.4248 176.56 98.768 180.051 98.0602C183.543 97.3525 186.746 95.6257 189.257 93.098C191.767 90.5703 193.472 87.3551 194.156 83.8588C194.84 80.3625 194.472 76.742 193.099 73.4547C191.725 70.1674 189.409 67.3609 186.441 65.3899C183.473 63.4189 179.988 62.3718 176.426 62.3809C171.648 62.3972 167.072 64.3087 163.702 67.6958C160.332 71.0828 158.444 75.6686 158.453 80.4464V80.4772ZM160.641 80.4772C160.623 77.3494 161.533 74.2864 163.255 71.6755C164.978 69.0647 167.436 67.0232 170.319 65.8094C173.201 64.5956 176.379 64.2638 179.451 64.8561C182.522 65.4484 185.349 66.9381 187.573 69.1369C189.798 71.3357 191.321 74.1447 191.949 77.2089C192.577 80.2731 192.283 83.4547 191.103 86.3515C189.922 89.2483 187.91 91.73 185.319 93.483C182.729 95.236 179.677 96.1814 176.549 96.1998C174.47 96.2099 172.409 95.8105 170.485 95.0243C168.56 94.2381 166.81 93.0805 165.332 91.6177C163.855 90.1549 162.681 88.4154 161.876 86.4986C161.071 84.5818 160.651 82.5253 160.641 80.4464V80.4772ZM176.564 98.404C180.127 98.3857 183.604 97.3118 186.556 95.318C189.509 93.3242 191.804 90.5 193.152 87.2022C194.499 83.9045 194.839 80.2812 194.129 76.7903C193.418 73.2993 191.689 70.0974 189.159 67.5891C186.629 65.0808 183.412 63.3786 179.915 62.6978C176.418 62.017 172.798 62.388 169.512 63.7639C166.226 65.1399 163.421 67.4591 161.453 70.4284C159.484 73.3977 158.44 76.8839 158.453 80.4464C158.459 82.8166 158.932 85.1624 159.846 87.3493C160.76 89.5362 162.097 91.5213 163.779 93.1908C165.462 94.8604 167.457 96.1816 169.651 97.0788C171.845 97.976 174.194 98.4316 176.564 98.4194V98.404ZM160.641 80.4464C160.623 77.3186 161.533 74.2555 163.255 71.6447C164.978 69.0338 167.436 66.9924 170.319 65.7786C173.201 64.5647 176.379 64.233 179.451 64.8253C182.522 65.4175 185.349 66.9073 187.573 69.1061C189.798 71.3048 191.321 74.1139 191.949 77.1781C192.577 80.2423 192.283 83.4239 191.103 86.3207C189.922 89.2174 187.91 91.6992 185.319 93.4522C182.729 95.2052 179.677 96.1506 176.549 96.1689C172.356 96.1895 168.326 94.5455 165.343 91.5978C162.361 88.6501 160.67 84.6395 160.641 80.4464ZM176.564 98.3732C180.128 98.3549 183.606 97.2801 186.559 95.285C189.512 93.2898 191.808 90.4637 193.154 87.1642C194.501 83.8646 194.84 80.2398 194.126 76.748C193.413 73.2563 191.68 70.0544 189.148 67.5474C186.615 65.0403 183.395 63.3406 179.896 62.6633C176.397 61.986 172.776 62.3614 169.491 63.7421C166.205 65.1227 163.403 67.4467 161.438 70.4201C159.473 73.3934 158.434 76.8826 158.453 80.4464C158.459 82.8166 158.932 85.1624 159.846 87.3493C160.76 89.5362 162.097 91.5213 163.779 93.1908C165.462 94.8604 167.457 96.1816 169.651 97.0788C171.845 97.976 174.194 98.4316 176.564 98.4194V98.3732ZM160.641 80.4464C160.623 77.3186 161.533 74.2555 163.255 71.6447C164.978 69.0338 167.436 66.9924 170.319 65.7786C173.201 64.5647 176.379 64.233 179.451 64.8253C182.522 65.4175 185.349 66.9073 187.573 69.1061C189.798 71.3048 191.321 74.1139 191.949 77.1781C192.577 80.2423 192.283 83.4239 191.103 86.3207C189.922 89.2174 187.91 91.6992 185.319 93.4522C182.729 95.2052 179.677 96.1506 176.549 96.1689C172.356 96.1895 168.326 94.5455 165.343 91.5978C162.361 88.6501 160.67 84.6395 160.641 80.4464Z" fill="#0065FF"/>
<path d="M176.564 98.4194C180.126 98.4011 183.603 97.3276 186.555 95.3345C189.507 93.3414 191.802 90.5181 193.15 87.2213C194.498 83.9244 194.839 80.3019 194.13 76.8114C193.421 73.3208 191.692 70.1189 189.164 67.6099C186.636 65.101 183.421 63.3977 179.925 62.7151C176.429 62.0325 172.809 62.4013 169.523 63.7749C166.236 65.1485 163.431 67.4653 161.461 70.4326C159.49 73.3998 158.443 76.8845 158.453 80.4464M176.564 98.4194C174.194 98.4316 171.845 97.976 169.651 97.0788C167.457 96.1816 165.462 94.8604 163.779 93.1908C162.097 91.5213 160.76 89.5362 159.846 87.3493C158.932 85.1624 158.459 82.8166 158.453 80.4464M176.564 98.4194V98.3732C180.128 98.3549 183.606 97.2801 186.559 95.285C189.512 93.2898 191.808 90.4637 193.154 87.1642C194.501 83.8646 194.84 80.2398 194.126 76.748C193.413 73.2563 191.68 70.0544 189.148 67.5474C186.615 65.0403 183.395 63.3406 179.896 62.6633C176.397 61.986 172.776 62.3614 169.491 63.7421C166.205 65.1227 163.403 67.4467 161.438 70.4201C159.473 73.3934 158.434 76.8826 158.453 80.4464M176.564 98.4194V98.404C180.127 98.3857 183.604 97.3118 186.556 95.318C189.509 93.3242 191.804 90.5 193.152 87.2022C194.499 83.9045 194.839 80.2812 194.129 76.7903C193.418 73.2993 191.689 70.0974 189.159 67.5891C186.629 65.0808 183.412 63.3786 179.915 62.6978C176.418 62.017 172.798 62.388 169.512 63.7639C166.226 65.1399 163.421 67.4591 161.453 70.4284C159.484 73.3977 158.44 76.8839 158.453 80.4464M158.453 80.4464C158.444 75.6686 160.332 71.0828 163.702 67.6958C167.072 64.3087 171.648 62.3972 176.426 62.3809C179.988 62.3718 183.473 63.4189 186.441 65.3899C189.409 67.3609 191.725 70.1674 193.099 73.4547C194.472 76.742 194.84 80.3625 194.156 83.8588C193.472 87.3551 191.767 90.5703 189.257 93.098C186.746 95.6257 183.543 97.3525 180.051 98.0602C176.56 98.768 172.937 98.4248 169.64 97.0742C166.343 95.7235 163.521 93.426 161.53 90.4719C159.539 87.5178 158.468 84.0398 158.453 80.4772V80.4464ZM160.641 80.4464C160.623 77.3186 161.533 74.2555 163.255 71.6447C164.978 69.0338 167.436 66.9924 170.319 65.7786C173.201 64.5647 176.379 64.233 179.451 64.8253C182.522 65.4175 185.349 66.9073 187.573 69.1061C189.798 71.3048 191.321 74.1139 191.949 77.1781C192.577 80.2423 192.283 83.4239 191.103 86.3207C189.922 89.2174 187.91 91.6992 185.319 93.4522C182.729 95.2052 179.677 96.1506 176.549 96.1689C172.356 96.1895 168.326 94.5455 165.343 91.5978C162.361 88.6501 160.67 84.6396 160.641 80.4464ZM160.641 80.4464C160.651 82.5253 161.071 84.5818 161.876 86.4986C162.681 88.4154 163.855 90.1549 165.332 91.6177C166.81 93.0805 168.56 94.2381 170.485 95.0243C172.409 95.8105 174.47 96.2099 176.549 96.1998C179.677 96.1814 182.729 95.236 185.319 93.483C187.91 91.73 189.922 89.2483 191.103 86.3515C192.283 83.4547 192.577 80.2731 191.949 77.2089C191.321 74.1447 189.798 71.3357 187.573 69.1369C185.349 66.9381 182.522 65.4484 179.451 64.8561C176.379 64.2638 173.201 64.5956 170.319 65.8094C167.436 67.0232 164.978 69.0647 163.255 71.6755C161.533 74.2864 160.623 77.3494 160.641 80.4772V80.4464ZM176.672 118.319C184.181 118.276 191.509 116.008 197.729 111.8C203.949 107.592 208.781 101.634 211.615 94.6797C214.448 87.7254 215.156 80.0869 213.648 72.7305C212.14 65.374 208.484 58.63 203.143 53.3514C197.802 48.0728 191.015 44.4967 183.641 43.0754C176.268 41.6541 168.638 42.4515 161.717 45.3666C154.797 48.2818 148.896 53.1838 144.762 59.4528C140.628 65.7217 138.445 73.0758 138.491 80.5851C138.515 85.5734 139.522 90.5081 141.455 95.107C143.387 99.7059 146.207 103.879 149.752 107.388C153.298 110.896 157.501 113.672 162.12 115.555C166.739 117.439 171.684 118.394 176.672 118.366V118.319ZM155.647 80.4772C155.623 76.3616 156.819 72.3313 159.086 68.8958C161.352 65.4603 164.586 62.7739 168.379 61.1765C172.172 59.579 176.354 59.1422 180.395 59.9212C184.436 60.7002 188.156 62.66 191.083 65.553C194.01 68.4459 196.014 72.1419 196.841 76.1736C197.668 80.2054 197.281 84.3917 195.728 88.2034C194.176 92.015 191.528 95.2808 188.12 97.5876C184.711 99.8944 180.695 101.139 176.58 101.163C171.071 101.188 165.777 99.0306 161.854 95.1629C157.932 91.2952 155.7 86.0319 155.647 80.5235V80.4772Z" stroke="#002255"/>
<rect x="153.448" y="56.2881" width="47.3138" height="47.3138" rx="23.6569" fill="#F4F3F1"/>
<rect x="153.448" y="56.2881" width="47.3138" height="47.3138" rx="23.6569" stroke="#002255"/>
<path d="M192.564 82.4001C192.43 83.0269 192.328 83.7562 192.225 84.4618C192.117 85.4634 191.923 86.4539 191.646 87.4223C191.469 87.83 191.199 88.1905 190.857 88.4748C190.857 88.9164 190.644 91.4945 188.839 92.3184C188.815 92.5697 188.73 92.8115 188.593 93.0235C188.456 93.2355 188.27 93.4114 188.05 93.5365C187.983 93.5759 181.712 96.9779 179.48 96.9779C179.339 96.9799 179.198 96.9613 179.063 96.9227C177.99 96.5679 177.486 95.9017 177.525 94.8216C177.548 94.3483 177.634 93.8803 177.781 93.43C177.356 92.8426 177.45 92.0937 177.537 91.4314C177.618 91.0568 177.627 90.6702 177.565 90.2921C177.352 89.4801 177.655 88.1634 177.738 87.8402C177.47 87.4223 177.549 86.2318 177.695 84.6156C177.746 84.0637 177.793 83.5394 177.793 83.2201C177.814 82.8657 177.967 82.5321 178.223 82.2858C178.124 81.3871 178.124 80.4802 178.223 79.5815C177.777 77.8983 178.156 75.4502 178.223 75.0836C177.669 73.597 177.639 71.966 178.136 70.4596C177.399 69.0247 177.777 66.2613 177.821 65.9656C177.789 65.737 177.596 64.0656 178.388 63.3008C178.576 63.1328 178.803 63.0139 179.047 62.9548C179.292 62.8956 179.548 62.898 179.792 62.9618C181.16 63.2141 182.019 63.3875 182.642 63.557C182.993 63.6486 183.336 63.77 183.667 63.9197C184.223 64.2683 184.641 64.7991 184.849 65.4216C185.23 65.3126 185.632 65.2939 186.021 65.3672C186.41 65.4404 186.777 65.6035 187.093 65.8434C187.979 66.5293 188.015 67.1561 187.983 67.4203C189.915 68.6029 190.644 73.4595 190.743 74.0587C191.049 74.3902 191.265 74.795 191.369 75.2342C191.474 75.6734 191.463 76.132 191.338 76.5658C191.632 76.8687 191.839 77.2458 191.935 77.6568C192.032 78.0679 192.015 78.4974 191.886 78.8996C191.827 79.0944 191.746 79.2821 191.646 79.4593C191.657 79.5106 192.907 80.7523 192.564 82.4001Z" fill="#0065FF"/>
<path opacity="0.2" d="M192.564 82.4004C192.43 83.0272 192.328 83.7565 192.225 84.4621C192.117 85.4637 191.923 86.4542 191.646 87.4226C191.469 87.8302 191.199 88.1907 190.857 88.4751C190.857 88.9166 190.644 91.4947 188.839 92.3186C188.815 92.57 188.73 92.8118 188.593 93.0238C188.456 93.2357 188.27 93.4117 188.051 93.5367C187.984 93.5762 181.712 96.9782 179.48 96.9782C179.339 96.9802 179.198 96.9616 179.063 96.923C177.99 96.5682 177.486 95.902 177.525 94.8218C177.61 94.8722 177.676 94.95 177.71 95.0426C178.278 96.1779 179.354 96.2962 180.261 96.1188C181.168 95.9414 181.392 94.8613 181.392 94.8613L179.816 93.8836C179.816 93.8836 181.605 93.312 182.713 92.8981C182.852 92.8612 182.98 92.7905 183.085 92.6923C183.19 92.594 183.269 92.4713 183.315 92.3351C183.361 92.1989 183.373 92.0533 183.349 91.9115C183.325 91.7697 183.266 91.636 183.178 91.5223C182.894 91.5911 182.598 91.5992 182.31 91.5462C182.022 91.4932 181.748 91.3804 181.507 91.2149C181.549 91.0231 181.632 90.843 181.752 90.687C181.871 90.5311 182.023 90.4031 182.197 90.3121C182.729 90.115 184.589 89.0191 183.872 88.4475C183.154 87.8759 182.197 88.4081 182.197 88.4081C180.758 88.6367 180.245 87.8089 180.245 87.8089C180.245 87.8089 184.286 86.6263 184.227 85.2426C184.24 84.5482 184.106 83.8588 183.833 83.2203C183.833 83.2203 185.453 82.7552 185.756 81.6199C186.06 80.4845 184.775 79.1403 184.775 79.1403C185.429 79.3059 185.859 78.3519 185.756 77.9813C185.654 77.6108 187.053 76.4912 186.99 75.7146C186.927 74.938 185.756 74.8434 185.756 74.8434C186.486 73.3139 185.248 70.0775 185.248 70.0775C185.591 68.3785 184.065 66.9238 184.065 66.9238C184.164 65.6427 183.348 64.4088 182.61 63.5652C182.962 63.6568 183.305 63.7781 183.635 63.9279C184.192 64.2764 184.61 64.8073 184.818 65.4298C185.199 65.3207 185.6 65.3021 185.989 65.3753C186.379 65.4486 186.746 65.6116 187.061 65.8516C187.948 66.5375 187.984 67.1643 187.952 67.4284C189.884 68.611 190.613 73.4677 190.711 74.0669C191.018 74.3983 191.234 74.8032 191.338 75.2424C191.442 75.6816 191.431 76.1402 191.307 76.574C191.601 76.8768 191.807 77.2539 191.904 77.665C192 78.076 191.983 78.5056 191.855 78.9077C191.795 79.1025 191.715 79.2902 191.614 79.4675C191.658 79.5108 192.907 80.7526 192.564 82.4004Z" fill="#002255"/>
<path d="M176.619 93.4299C177.21 95.3615 176.812 96.4377 175.337 96.9226C175.201 96.9612 175.061 96.9798 174.919 96.9778C174.072 96.9778 172.641 96.485 171.186 95.874C168.821 94.8767 166.389 93.56 166.349 93.5364C166.13 93.4113 165.944 93.2354 165.807 93.0234C165.67 92.8114 165.585 92.5696 165.561 92.3183C163.756 91.4944 163.558 88.9163 163.543 88.4747C163.201 88.1904 162.931 87.8299 162.754 87.4222C162.477 86.4538 162.283 85.4633 162.175 84.4617C162.072 83.7561 161.97 83.0268 161.836 82.4C161.489 80.7522 162.739 79.5105 162.794 79.4592C162.693 79.282 162.613 79.0943 162.553 78.8995C162.425 78.4973 162.408 78.0678 162.504 77.6567C162.601 77.2457 162.807 76.8686 163.101 76.5658C162.976 76.1319 162.966 75.6733 163.07 75.2341C163.174 74.795 163.39 74.3901 163.696 74.0586C163.779 73.4594 164.508 68.6107 166.456 67.4202C166.424 67.16 166.456 66.5332 167.347 65.8433C167.662 65.6034 168.029 65.4403 168.418 65.3671C168.808 65.2938 169.209 65.3125 169.59 65.4215C169.798 64.799 170.216 64.2682 170.772 63.9196C171.462 63.6003 172.33 63.3874 174.647 62.9617C174.875 62.9053 175.113 62.9005 175.342 62.9476C175.572 62.9946 175.789 63.0924 175.976 63.2337L176.051 63.3007C176.839 64.0655 176.65 65.7369 176.619 65.9655C176.662 66.2612 177.04 69.0246 176.303 70.4595C176.801 71.9659 176.77 73.5969 176.216 75.0835C176.276 75.4501 176.654 77.8982 176.216 79.5814C176.315 80.4801 176.315 81.387 176.216 82.2857C176.472 82.532 176.625 82.8656 176.646 83.22C176.646 83.5393 176.693 84.0636 176.741 84.6155C176.891 86.2317 176.969 87.4222 176.701 87.8401C176.784 88.1633 177.096 89.48 176.875 90.292C176.812 90.6701 176.821 91.0567 176.902 91.4313C176.95 92.0936 177.044 92.8426 176.619 93.4299Z" fill="#0065FF"/>
<path opacity="0.2" d="M176.619 93.4299C177.21 95.3615 176.812 96.4377 175.337 96.9226C175.202 96.9612 175.061 96.9798 174.92 96.9777C174.072 96.9777 172.641 96.485 171.186 95.874C171.793 96.0199 172.429 95.9731 173.008 95.7399C174.675 94.782 173.52 93.8832 173.52 93.8832C175.7 94.1 175.239 91.518 175.412 90.3117C175.586 89.1054 174.139 88.0056 174.139 88.0056C175.266 88.1791 175.002 85.6404 175.491 84.6982C175.98 83.7561 175.132 81.6825 175.132 81.6825C174.951 80.0347 174.285 79.5104 175.132 78.3909C175.98 77.2713 175.132 74.5316 175.132 74.5316C175.132 74.5316 175.716 73.3096 175.491 72.3319C175.266 71.3543 175.491 69.4385 175.491 69.4385C174.703 68.4214 175.491 65.0746 175.491 65.0746C175.495 64.4314 175.658 63.7992 175.964 63.2336L176.039 63.3007C176.827 64.0654 176.638 65.7369 176.607 65.9655C176.65 66.2611 177.029 69.0245 176.291 70.4595C176.789 71.9658 176.758 73.5968 176.205 75.0835C176.264 75.4501 176.642 77.8981 176.205 79.5814C176.303 80.4801 176.303 81.3869 176.205 82.2857C176.46 82.532 176.614 82.8655 176.634 83.2199C176.634 83.5392 176.682 84.0635 176.729 84.6154C176.879 86.2317 176.958 87.4222 176.69 87.84C176.772 88.1633 177.084 89.4799 176.863 90.292C176.8 90.6701 176.81 91.0567 176.891 91.4313C176.95 92.0935 177.044 92.8425 176.619 93.4299Z" fill="#002255"/>
<path d="M181.436 66.9197C181.436 66.9197 181.042 69.1548 182.224 70.0733C182.224 70.0733 181.984 72.8328 182.701 74.0982C182.701 74.0982 181.519 76.6448 182.701 78.2374C182.701 78.2374 181.27 82.0533 182.701 83.0073C184.132 83.9612 187.948 81.3398 189.462 81.0362C190.976 80.7327 192.801 78.332 191.121 76.6172" stroke="#002255" stroke-linecap="round" stroke-linejoin="round"/>
<path d="M186.588 74.6697C186.588 74.6697 186.588 73.8813 186.588 72.7578C186.588 71.6343 185.729 70.0851 185.729 70.0851C186.123 69.0838 184.617 66.9314 184.617 66.9314C185.252 65.9499 184.223 64.3809 183.557 64.0656C182.89 63.7502 181.98 63.5373 179.717 63.1234C177.454 62.7095 177.923 65.9775 177.923 65.9775C177.923 65.9775 177.458 69.0247 178.255 70.4556C177.745 71.9597 177.773 73.5939 178.333 75.0797C178.333 75.0797 177.856 77.8076 178.333 79.5815C178.333 79.5815 178.16 81.5762 178.365 82.341" stroke="#002255" stroke-linecap="round" stroke-linejoin="round"/>
<path d="M185.007 75.0642C186.158 74.6003 187.444 74.6003 188.595 75.0642" stroke="#002255" stroke-linecap="round" stroke-linejoin="round"/>
<path d="M179.843 81.3909C179.843 81.3909 177.923 82.1556 177.923 83.22C177.923 84.2843 177.431 87.3552 177.88 87.8086C178.329 88.2619 182.299 88.0214 185.007 86.1923C185.007 86.1923 188.433 86.5116 189.15 85.6365C189.868 84.7613 191.078 84.5366 191.228 83.9729" stroke="#002255" stroke-linecap="round" stroke-linejoin="round"/>
<path d="M191.5 79.5698C191.5 79.5698 192.749 80.784 192.41 82.3687C192.071 83.9534 191.933 86.1452 191.5 87.3751C191.066 88.605 188.24 90.2725 186.588 89.7837C186.588 89.7837 181.834 91.6444 180.639 91.1477" stroke="#002255" stroke-linecap="round" stroke-linejoin="round"/>
<path d="M177.88 87.8088C177.88 87.8088 177.458 89.3857 177.691 90.249C177.923 91.1123 177.198 92.5038 177.923 93.4026C178.649 94.3014 184.538 93.8244 185.413 92.8705" stroke="#002255" stroke-linecap="round" stroke-linejoin="round"/>
<path d="M188.595 91.2263C188.595 91.2263 189.087 92.7598 187.956 93.4023C186.825 94.0449 180.568 97.2577 179.094 96.7728C177.62 96.2879 177.36 95.196 177.912 93.4023" stroke="#002255" stroke-linecap="round" stroke-linejoin="round"/>
<path d="M190.7 88.4077C190.7 88.4077 190.637 91.3958 188.701 92.2157" stroke="#002255" stroke-linecap="round" stroke-linejoin="round"/>
<path d="M184.723 65.6031C185.098 65.4736 185.498 65.4382 185.889 65.5001C186.28 65.562 186.65 65.7192 186.966 65.9579C188.039 66.7778 187.782 67.4835 187.782 67.4835C189.832 68.5912 190.542 74.1219 190.542 74.1219C190.852 74.4442 191.07 74.8445 191.171 75.2804C191.272 75.7162 191.254 76.1714 191.117 76.5975C190.723 78.2256 188.421 77.8353 186.576 78.8445C184.731 79.8537 182.697 78.2335 182.697 78.2335" stroke="#002255" stroke-linecap="round" stroke-linejoin="round"/>
<path d="M182.709 83.0115C182.445 83.4553 182.088 83.8363 181.662 84.1277C181.235 84.4191 180.751 84.614 180.241 84.6987" stroke="#002255" stroke-linecap="round" stroke-linejoin="round"/>
<path d="M182.193 77.1256C181.276 76.9981 180.343 77.1652 179.528 77.6026" stroke="#002255" stroke-linecap="round" stroke-linejoin="round"/>
<path d="M178.333 75.0643C178.333 75.0643 180.005 73.7831 180.639 74.0196" stroke="#002255" stroke-linecap="round" stroke-linejoin="round"/>
<path d="M182.193 71.1613C182.193 71.1613 180.084 70.9209 179.528 71.796" stroke="#002255" stroke-linecap="round" stroke-linejoin="round"/>
<path d="M178.255 70.4439C178.255 70.4439 178.491 69.3322 179.528 69.1746" stroke="#002255" stroke-linecap="round" stroke-linejoin="round"/>
<path d="M177.923 65.9658C177.923 65.9658 178.574 64.8226 179.528 65.0079" stroke="#002255" stroke-linecap="round" stroke-linejoin="round"/>
<path d="M186.588 89.7837C186.588 89.7837 186.765 88.5459 186.048 88.0059" stroke="#002255" stroke-linecap="round" stroke-linejoin="round"/>
<path d="M185.007 86.1922C185.007 86.1922 185.571 84.4852 185.402 84.0674" stroke="#002255" stroke-linecap="round" stroke-linejoin="round"/>
<path d="M181.373 87.8325C181.587 87.9272 181.775 88.0743 181.918 88.2602C182.062 88.4461 182.156 88.665 182.193 88.8969" stroke="#002255" stroke-linecap="round" stroke-linejoin="round"/>
<path d="M187.715 78.3911C187.715 78.3911 188.354 79.4318 188.039 80.1493" stroke="#002255" stroke-linecap="round" stroke-linejoin="round"/>
<path d="M190.554 74.1295C190.554 74.1295 189.308 73.1479 188.583 72.9902" stroke="#002255" stroke-linecap="round" stroke-linejoin="round"/>
<path d="M185.729 70.0772C186.343 69.7884 187.031 69.6948 187.7 69.8091" stroke="#002255" stroke-linecap="round" stroke-linejoin="round"/>
<path d="M172.945 66.9197C172.945 66.9197 173.339 69.1548 172.156 70.0733C172.156 70.0733 172.397 72.8328 171.679 74.0982C171.679 74.0982 172.862 76.6448 171.679 78.2374C171.679 78.2374 173.11 82.0533 171.679 83.0073C170.248 83.9612 166.432 81.3398 164.918 81.0362C163.405 80.7327 161.58 78.332 163.259 76.6172" stroke="#002255" stroke-linecap="round" stroke-linejoin="round"/>
<path d="M167.792 74.6697C167.792 74.6697 167.792 73.8813 167.792 72.7578C167.792 71.6343 168.652 70.0851 168.652 70.0851C168.257 69.0838 169.763 66.9314 169.763 66.9314C169.129 65.9499 170.157 64.3809 170.824 64.0656C171.49 63.7502 172.401 63.5373 174.663 63.1234C176.926 62.7095 176.457 65.9775 176.457 65.9775C176.457 65.9775 176.922 69.0247 176.126 70.4556C176.635 71.9597 176.607 73.5939 176.047 75.0797C176.047 75.0797 176.524 77.8076 176.047 79.5815C176.047 79.5815 176.22 81.5762 176.015 82.341" stroke="#002255" stroke-linecap="round" stroke-linejoin="round"/>
<path d="M169.373 75.0642C168.222 74.6003 166.937 74.6003 165.786 75.0642" stroke="#002255" stroke-linecap="round" stroke-linejoin="round"/>
<path d="M174.537 81.3909C174.537 81.3909 176.457 82.1556 176.457 83.22C176.457 84.2843 176.95 87.3552 176.496 87.8086C176.043 88.2619 172.081 88.0214 169.373 86.1923C169.373 86.1923 165.947 86.5116 165.23 85.6365C164.512 84.7613 163.302 84.5366 163.152 83.9729" stroke="#002255" stroke-linecap="round" stroke-linejoin="round"/>
<path d="M162.88 79.5698C162.88 79.5698 161.631 80.784 161.97 82.3687C162.309 83.9534 162.447 86.1452 162.88 87.3751C163.314 88.605 166.141 90.2725 167.792 89.7837C167.792 89.7837 172.546 91.6444 173.741 91.1477" stroke="#002255" stroke-linecap="round" stroke-linejoin="round"/>
<path d="M176.496 87.8088C176.496 87.8088 176.922 89.3857 176.689 90.249C176.457 91.1123 177.182 92.5038 176.457 93.4026C175.732 94.3014 169.842 93.8244 168.967 92.8705" stroke="#002255" stroke-linecap="round" stroke-linejoin="round"/>
<path d="M165.786 91.2263C165.786 91.2263 165.293 92.7598 166.424 93.4023C167.556 94.0449 173.812 97.2577 175.286 96.7728C176.76 96.2879 177.021 95.196 176.469 93.4023" stroke="#002255" stroke-linecap="round" stroke-linejoin="round"/>
<path d="M163.681 88.4077C163.681 88.4077 163.744 91.3958 165.679 92.2157" stroke="#002255" stroke-linecap="round" stroke-linejoin="round"/>
<path d="M169.657 65.6031C169.282 65.4736 168.882 65.4382 168.491 65.5001C168.1 65.562 167.73 65.7192 167.414 65.9579C166.341 66.7778 166.598 67.4835 166.598 67.4835C164.548 68.5912 163.838 74.1219 163.838 74.1219C163.528 74.4442 163.311 74.8445 163.209 75.2804C163.108 75.7162 163.126 76.1714 163.263 76.5975C163.657 78.2256 165.959 77.8353 167.804 78.8445C169.649 79.8537 171.683 78.2335 171.683 78.2335" stroke="#002255" stroke-linecap="round" stroke-linejoin="round"/>
<path d="M171.671 83.0115C171.935 83.4553 172.293 83.8363 172.719 84.1277C173.145 84.4191 173.63 84.614 174.139 84.6987" stroke="#002255" stroke-linecap="round" stroke-linejoin="round"/>
<path d="M172.188 77.1256C173.104 76.9981 174.037 77.1652 174.853 77.6026" stroke="#002255" stroke-linecap="round" stroke-linejoin="round"/>
<path d="M176.047 75.0643C176.047 75.0643 174.376 73.7831 173.741 74.0196" stroke="#002255" stroke-linecap="round" stroke-linejoin="round"/>
<path d="M172.188 71.1613C172.188 71.1613 174.297 70.9209 174.853 71.796" stroke="#002255" stroke-linecap="round" stroke-linejoin="round"/>
<path d="M176.126 70.4439C176.126 70.4439 175.889 69.3322 174.852 69.1746" stroke="#002255" stroke-linecap="round" stroke-linejoin="round"/>
<path d="M176.457 65.9658C176.457 65.9658 175.806 64.8226 174.852 65.0079" stroke="#002255" stroke-linecap="round" stroke-linejoin="round"/>
<path d="M167.792 89.7837C167.792 89.7837 167.615 88.5459 168.332 88.0059" stroke="#002255" stroke-linecap="round" stroke-linejoin="round"/>
<path d="M169.373 86.1922C169.373 86.1922 168.809 84.4852 168.979 84.0674" stroke="#002255" stroke-linecap="round" stroke-linejoin="round"/>
<path d="M173.008 87.8325C172.793 87.9272 172.605 88.0743 172.462 88.2602C172.319 88.4461 172.225 88.665 172.188 88.8969" stroke="#002255" stroke-linecap="round" stroke-linejoin="round"/>
<path d="M166.665 78.3911C166.665 78.3911 166.026 79.4318 166.342 80.1493" stroke="#002255" stroke-linecap="round" stroke-linejoin="round"/>
<path d="M163.827 74.1295C163.827 74.1295 165.072 73.1479 165.798 72.9902" stroke="#002255" stroke-linecap="round" stroke-linejoin="round"/>
<path d="M168.652 70.0772C168.037 69.7884 167.35 69.6948 166.681 69.8091" stroke="#002255" stroke-linecap="round" stroke-linejoin="round"/>
</g>
<defs>
<clipPath id="clip0_1_1085">
<rect width="354" height="143" fill="white"/>
</clipPath>
</defs>
</svg>
