<svg width="357" height="144" viewBox="0 0 357 144" fill="none" xmlns="http://www.w3.org/2000/svg">
<path d="M356 118.637L240.013 105.796C231.966 104.905 224.379 101.593 218.254 96.2974L208.172 87.5811C202.542 82.7133 195.665 79.5129 188.316 78.3398L161.237 74.0177C158.712 73.6147 156.231 72.9704 153.829 72.0939L130.192 63.4681C127.639 62.5366 124.998 61.8676 122.31 61.4716L84.8135 55.947C82.0948 55.5464 79.4246 54.8667 76.8452 53.9187L58.825 47.2958C54.4057 45.6716 49.7345 44.8403 45.0262 44.8403H1.00012V144H356V118.637Z" fill="url(#paint0_linear_1_813)"/>
<path d="M1 44H41.6045C46.2614 44 50.8888 44.7393 55.3139 46.1903L79.4671 54.1101C81.9717 54.9314 84.5451 55.526 87.1561 55.8866L124.03 60.9799C127.24 61.4233 130.392 62.22 133.427 63.3554L152.972 70.6673C155.611 71.6543 158.338 72.3857 161.116 72.8513L187.75 77.3149C195.482 78.6108 202.728 81.9493 208.737 86.985L219.818 96.27C226.549 101.91 234.813 105.407 243.548 106.311L356 117.95" stroke="#0065FF" stroke-width="3"/>
<line x1="233.5" y1="136.5" x2="233.5" y2="7.5" stroke="url(#paint1_linear_1_813)" stroke-linecap="round"/>
<circle cx="234" cy="104" r="3" fill="#0065FF" stroke="white"/>
<rect x="1" y="1" width="20" height="20" rx="4" fill="#CCE0FF"/>
<rect x="1" y="1" width="20" height="20" rx="4" stroke="#0065FF" stroke-width="0.5"/>
<path d="M12.32 8.16675H9.67337C8.84003 8.16675 8.16003 8.84008 8.16003 9.68008V12.3267C8.16003 13.1601 8.83337 13.8401 9.67337 13.8401H12.32C13.1534 13.8401 13.8334 13.1667 13.8334 12.3267V9.68008C13.8334 8.84008 13.16 8.16675 12.32 8.16675ZM12 11.6534L11.4067 12.6867C11.32 12.8401 11.16 12.9201 11 12.9201C10.92 12.9201 10.8334 12.9001 10.7667 12.8601C10.54 12.7334 10.46 12.4467 10.5934 12.2201L11.02 11.4801H10.6467C10.3467 11.4801 10.1 11.3467 9.9667 11.1201C9.83337 10.8934 9.8467 10.6134 10 10.3534L10.5934 9.32008C10.7267 9.09341 11.0134 9.02008 11.2334 9.14675C11.46 9.27341 11.54 9.56008 11.4067 9.78675L10.98 10.5267H11.3534C11.6534 10.5267 11.9 10.6601 12.0334 10.8867C12.1667 11.1134 12.1534 11.3934 12 11.6534Z" fill="#0065FF"/>
<path d="M17.1667 11.4999C17.4467 11.4999 17.6667 11.2733 17.6667 10.9999C17.6667 10.7199 17.4467 10.4999 17.1667 10.4999H16.3334V9.03325H17.1667C17.4467 9.03325 17.6667 8.81325 17.6667 8.53325C17.6667 8.25992 17.4467 8.03325 17.1667 8.03325H16.18C15.86 6.97325 15.0267 6.13992 13.9667 5.81992V4.83325C13.9667 4.55992 13.74 4.33325 13.4667 4.33325C13.1934 4.33325 12.9667 4.55992 12.9667 4.83325V5.66659H11.5V4.83325C11.5 4.55992 11.2734 4.33325 11 4.33325C10.7267 4.33325 10.5 4.55992 10.5 4.83325V5.66659H9.04004V4.83325C9.04004 4.55992 8.81337 4.33325 8.54004 4.33325C8.26004 4.33325 8.04004 4.55992 8.04004 4.83325V5.81992C6.97337 6.13992 6.14004 6.97325 5.82004 8.03325H4.83337C4.56004 8.03325 4.33337 8.25992 4.33337 8.53325C4.33337 8.81325 4.56004 9.03325 4.83337 9.03325H5.66671V10.4999H4.83337C4.56004 10.4999 4.33337 10.7199 4.33337 10.9999C4.33337 11.2733 4.56004 11.4999 4.83337 11.4999H5.66671V12.9666H4.83337C4.56004 12.9666 4.33337 13.1866 4.33337 13.4666C4.33337 13.7399 4.56004 13.9666 4.83337 13.9666H5.82004C6.13337 15.0266 6.97337 15.8599 8.04004 16.1799V17.1666C8.04004 17.4399 8.26004 17.6666 8.54004 17.6666C8.81337 17.6666 9.04004 17.4399 9.04004 17.1666V16.3333H10.5067V17.1666C10.5067 17.4399 10.7267 17.6666 11.0067 17.6666C11.28 17.6666 11.5067 17.4399 11.5067 17.1666V16.3333H12.9667V17.1666C12.9667 17.4399 13.1934 17.6666 13.4667 17.6666C13.74 17.6666 13.9667 17.4399 13.9667 17.1666V16.1799C15.0267 15.8599 15.86 15.0266 16.18 13.9666H17.1667C17.4467 13.9666 17.6667 13.7399 17.6667 13.4666C17.6667 13.1866 17.4467 12.9666 17.1667 12.9666H16.3334V11.4999H17.1667ZM14.5067 12.5066C14.5067 13.6066 13.6067 14.5066 12.5067 14.5066H9.49337C8.39337 14.5066 7.49337 13.6066 7.49337 12.5066V9.49325C7.49337 8.39325 8.39337 7.49325 9.49337 7.49325H12.5067C13.6067 7.49325 14.5067 8.39325 14.5067 9.49325V12.5066Z" fill="#0065FF"/>
<defs>
<linearGradient id="paint0_linear_1_813" x1="178.5" y1="59.966" x2="178.5" y2="144" gradientUnits="userSpaceOnUse">
<stop stop-color="#80B2FF"/>
<stop offset="1" stop-color="white" stop-opacity="0"/>
</linearGradient>
<linearGradient id="paint1_linear_1_813" x1="234" y1="11.3333" x2="234" y2="138.083" gradientUnits="userSpaceOnUse">
<stop stop-color="white" stop-opacity="0"/>
<stop offset="0.489583" stop-color="#0065FF"/>
<stop offset="1" stop-color="white" stop-opacity="0"/>
</linearGradient>
</defs>
</svg>
