<svg width="354" height="143" viewBox="0 0 354 143" fill="none" xmlns="http://www.w3.org/2000/svg">
<g clip-path="url(#clip0_1_1023)">
<path d="M215.27 83.5331C215.27 75.3742 213.079 67.365 208.926 60.3421C204.773 53.3192 198.811 47.5404 191.661 43.6092C184.512 39.6781 176.438 37.7389 168.283 37.9942C160.128 38.2496 152.192 40.6901 145.302 45.0608C138.413 49.4315 132.823 55.5721 129.118 62.841C125.412 70.11 123.727 78.2406 124.237 86.3835C124.748 94.5264 127.436 102.383 132.02 109.132C136.604 115.881 142.917 121.276 150.298 124.752V136.241H190.238C190.238 136.241 190.474 129.793 190.56 124.032C198.003 120.204 204.246 114.399 208.605 107.254C212.964 100.11 215.27 91.9023 215.27 83.5331Z" fill="#0065FF"/>
<path d="M175.792 136.059C175.792 136.059 175.792 135.866 175.792 135.489C175.792 135.113 175.9 134.554 175.986 133.845C176.158 132.405 176.416 130.277 176.813 127.547C177.211 124.817 177.759 121.474 178.63 117.637C179.583 113.286 180.969 109.04 182.768 104.965C183.807 102.582 185.059 100.298 186.508 98.1401C187.296 96.9616 188.368 96.0005 189.625 95.3456C190.301 95.0239 191.044 94.8687 191.792 94.8931C192.54 94.9174 193.271 95.1205 193.924 95.4853C194.622 95.8785 195.142 96.5251 195.375 97.291C195.608 98.0685 195.539 98.9052 195.182 99.6341C194.42 101.04 193.17 102.118 191.667 102.665C188.542 103.7 185.134 103.456 182.187 101.988C180.652 101.227 179.288 100.16 178.18 98.8534C177.071 97.5468 176.24 96.0277 175.739 94.389C175.154 92.6977 175.061 90.8754 175.47 89.1333C175.686 88.2084 176.217 87.3875 176.972 86.811C177.727 86.2346 178.659 85.9384 179.608 85.9734C180.099 86.0228 180.569 86.1956 180.975 86.4756C181.381 86.7556 181.709 87.1337 181.93 87.5748C182.374 88.4387 182.504 89.431 182.295 90.38C181.729 92.1957 180.599 93.7842 179.071 94.9157C177.614 96.1426 175.917 97.0502 174.087 97.5797C172.258 98.1092 170.338 98.2489 168.452 97.9896C166.561 97.6904 164.771 96.9364 163.235 95.7925C161.7 94.6486 160.466 93.149 159.638 91.4226C159.209 90.5748 158.959 89.6472 158.906 88.6983C158.852 87.7494 158.995 86.7997 159.326 85.9089C159.501 85.4518 159.769 85.036 160.113 84.6881C160.458 84.3403 160.87 84.0679 161.326 83.8882C161.785 83.7315 162.272 83.6734 162.756 83.7179C163.239 83.7623 163.708 83.9083 164.131 84.1462C164.965 84.5958 165.637 85.2948 166.055 86.1453C166.454 86.9703 166.691 87.8642 166.753 88.7786C166.875 90.542 166.638 92.3118 166.055 93.9806C164.96 97.2578 162.652 99.9919 159.606 101.622C156.716 103.155 153.376 103.612 150.18 102.912C148.612 102.667 147.169 101.911 146.074 100.763C145.541 100.168 145.226 99.4104 145.181 98.6134C145.136 97.8164 145.364 97.0278 145.827 96.3774C146.083 96.0824 146.396 95.8419 146.746 95.6702C147.097 95.4984 147.479 95.399 147.869 95.3779C148.61 95.3297 149.35 95.4741 150.019 95.797C151.265 96.5086 152.246 97.6064 152.813 98.9247C153.952 101.397 154.877 103.794 155.801 106.083C159.445 115.272 162.035 122.839 163.765 128.073C164.625 130.696 165.27 132.749 165.7 134.135C165.904 134.812 166.055 135.339 166.173 135.715C166.291 136.091 166.313 136.263 166.313 136.263C166.313 136.263 166.237 136.091 166.119 135.737L165.593 134.167C165.12 132.77 164.432 130.75 163.561 128.149C161.766 122.925 159.122 115.391 155.436 106.233C154.501 103.955 153.555 101.526 152.426 99.1182C151.9 97.89 150.986 96.8673 149.825 96.2055C149.255 95.7537 148.529 95.5468 147.806 95.6305C147.084 95.7141 146.424 96.0814 145.972 96.6515C145.52 97.2216 145.313 97.9478 145.397 98.6705C145.481 99.3931 145.848 100.053 146.418 100.505C147.45 101.57 148.801 102.272 150.266 102.504C153.346 103.17 156.562 102.717 159.337 101.225C162.252 99.6483 164.454 97.0188 165.496 93.8731C166.052 92.2728 166.275 90.5757 166.151 88.8861C166.149 88.0471 165.934 87.2223 165.526 86.4891C165.118 85.756 164.531 85.1384 163.819 84.6943C163.465 84.4923 163.072 84.3677 162.666 84.3288C162.261 84.2899 161.851 84.3376 161.465 84.4686C161.081 84.6214 160.733 84.8535 160.444 85.1498C160.155 85.4461 159.932 85.8 159.789 86.1883C159.486 87.009 159.357 87.8833 159.409 88.7563C159.46 89.6294 159.692 90.4822 160.09 91.2614C160.883 92.9009 162.06 94.3247 163.522 95.4118C164.983 96.499 166.685 97.2174 168.484 97.506C170.293 97.7514 172.133 97.6153 173.886 97.1062C175.639 96.5971 177.266 95.7264 178.662 94.5503C180.085 93.4947 181.139 92.0163 181.672 90.3263C181.862 89.5054 181.752 88.6434 181.36 87.8973C181.183 87.5363 180.918 87.2259 180.589 86.9948C180.26 86.7637 179.878 86.6194 179.479 86.5752C178.657 86.5204 177.846 86.7819 177.211 87.3061C176.574 87.8332 176.119 88.5477 175.911 89.3482C175.533 90.988 175.623 92.7007 176.169 94.2923C176.647 95.8629 177.439 97.3198 178.498 98.5744C179.556 99.829 180.859 100.855 182.327 101.59C185.141 102.999 188.396 103.242 191.388 102.267C192.762 101.763 193.908 100.778 194.612 99.4944C194.917 98.8773 194.976 98.1671 194.776 97.5083C194.577 96.8495 194.134 96.2914 193.537 95.9475C192.945 95.6214 192.284 95.4398 191.607 95.4174C190.931 95.395 190.26 95.5324 189.647 95.8185C188.454 96.4362 187.437 97.3458 186.691 98.4626C185.245 100.588 183.993 102.84 182.951 105.191C181.147 109.24 179.743 113.455 178.759 117.777C177.867 121.592 177.297 124.913 176.856 127.643C176.416 130.373 176.136 132.469 175.921 133.931C175.814 134.63 175.739 135.178 175.685 135.565C175.631 135.952 175.792 136.059 175.792 136.059Z" fill="#002255"/>
<path d="M188.118 138.552H152.918C151.749 138.552 150.801 139.499 150.801 140.669V141.582C150.801 142.752 151.749 143.7 152.918 143.7H188.118C189.287 143.7 190.235 142.752 190.235 141.582V140.669C190.235 139.499 189.287 138.552 188.118 138.552Z" fill="#002255"/>
<g opacity="0.2">
<path d="M159.38 46.7964C159.574 47.624 156.156 48.8492 151.47 51.9662C145.396 55.8063 140.557 61.3132 137.528 67.8293C134.5 74.3454 133.411 81.5953 134.391 88.7136C135.025 94.2703 136.315 97.6989 135.552 98.0859C135.229 98.2471 134.477 97.613 133.488 96.1835C132.165 94.1177 131.161 91.8639 130.511 89.4982C129.499 85.9622 129.074 82.2841 129.254 78.6105C129.439 74.0533 130.523 69.5776 132.443 65.4405C134.363 61.3034 137.082 57.5863 140.442 54.5027C143.13 51.9946 146.213 49.9465 149.567 48.4408C151.791 47.4026 154.162 46.7138 156.596 46.3987C158.316 46.216 159.294 46.3879 159.38 46.7964Z" fill="white"/>
</g>
<g opacity="0.2">
<path d="M176.093 46.4207C175.782 47.9469 173.224 48.71 170.332 48.71C167.441 48.71 164.905 47.8932 164.604 46.367C164.475 45.6039 165.012 44.7978 166.055 44.2174C167.368 43.4868 168.851 43.116 170.354 43.1426C171.857 43.1103 173.342 43.4814 174.653 44.2174C175.696 44.8515 176.222 45.7221 176.093 46.4207Z" fill="white"/>
</g>
<path d="M124.847 94.4319L123.966 94.8188L121.386 95.8936C119.118 96.8502 115.776 98.2904 111.53 100.247C107.285 102.203 102.115 104.685 96.2572 107.835C89.5748 111.338 83.1811 115.367 77.1365 119.883C75.4409 121.172 73.839 122.58 72.3429 124.096C71.56 124.876 70.8411 125.717 70.1933 126.611C69.554 127.493 69.1005 128.495 68.8605 129.556C68.7655 130.098 68.7852 130.653 68.9186 131.186C69.0519 131.72 69.2958 132.219 69.6344 132.652C70.3493 133.543 71.2425 134.275 72.2569 134.801C74.4026 135.875 76.6952 136.624 79.0604 137.026C84.0618 137.877 89.1321 138.255 94.2044 138.155C99.4279 138.155 104.823 137.822 110.326 137.316C132.349 135.264 156.285 130.502 180.941 123.935C205.597 117.368 228.705 109.425 248.804 100.171C253.812 97.839 258.627 95.3992 263.163 92.7874C267.598 90.337 271.781 87.4571 275.652 84.189C277.485 82.6464 279.047 80.8082 280.274 78.7505C280.834 77.7646 281.151 76.6592 281.198 75.5261C281.182 74.4184 280.74 73.3596 279.962 72.5704C278.294 71.123 276.273 70.1407 274.105 69.7222C272.034 69.211 269.929 68.8517 267.806 68.6474C263.847 68.2974 259.871 68.1718 255.897 68.2712C252.125 68.3357 248.578 68.5292 245.268 68.7656C238.636 69.2493 232.95 69.8404 228.307 70.4746C223.664 71.1087 220.064 71.5494 217.624 71.9255L214.851 72.334L213.905 72.4522L214.84 72.2695L217.613 71.8181C220.042 71.4204 223.632 70.8722 228.275 70.2596C232.918 69.647 238.615 68.9698 245.246 68.4539C248.557 68.2067 252.114 67.9918 255.887 67.9165C259.874 67.8005 263.864 67.9154 267.838 68.2605C269.983 68.4599 272.11 68.8192 274.201 69.3353C276.45 69.771 278.544 70.7903 280.274 72.291C281.131 73.1471 281.621 74.3039 281.639 75.5154C281.608 76.7327 281.272 77.9228 280.661 78.9762C279.424 81.0896 277.836 82.9761 275.964 84.5544C272.075 87.8645 267.87 90.7841 263.41 93.2711C258.864 95.8936 254.038 98.3441 249.019 100.687C228.898 109.995 205.769 117.884 181.091 124.526C156.414 131.169 132.435 135.855 110.369 137.886C104.856 138.38 99.4494 138.681 94.2473 138.703C89.1416 138.793 84.0387 138.401 79.0067 137.531C76.5961 137.126 74.2618 136.354 72.0849 135.242C71.0089 134.684 70.0666 133.899 69.3227 132.942C68.9749 132.446 68.7066 131.898 68.5274 131.319C68.5274 131.018 68.4306 130.706 68.3984 130.405C68.3661 130.105 68.3984 129.804 68.4844 129.513C68.7529 128.38 69.2543 127.315 69.9568 126.386C70.6066 125.476 71.3252 124.617 72.1064 123.817C73.6221 122.271 75.2456 120.834 76.9645 119.518C83.0298 115.031 89.4455 111.037 96.1497 107.577C102.018 104.449 107.199 101.998 111.466 100.053C115.733 98.1077 119.086 96.7212 121.375 95.7539L123.976 94.6791C124.535 94.5393 124.847 94.4319 124.847 94.4319Z" fill="#002255"/>
<path d="M65.808 154.535C63.3016 153.513 61.0213 152.007 59.098 150.103C57.1746 148.199 55.6459 145.934 54.5995 143.438C53.5532 140.941 53.0096 138.263 53.0001 135.557C52.9906 132.85 53.5153 130.168 54.5441 127.665C55.5667 125.159 57.0734 122.88 58.9779 120.957C60.8824 119.035 63.1474 117.507 65.6432 116.46C68.139 115.414 70.8165 114.87 73.5227 114.86C76.2289 114.85 78.9105 115.374 81.4141 116.401C83.9188 117.425 86.1971 118.932 88.1189 120.837C90.0407 122.742 91.5683 125.006 92.6144 127.502C93.6604 129.997 94.2045 132.674 94.2154 135.38C94.2263 138.086 93.7039 140.767 92.6781 143.271C91.6554 145.776 90.1488 148.056 88.2442 149.978C86.3397 151.901 84.0748 153.429 81.579 154.475C79.0832 155.522 76.4056 156.065 73.6994 156.076C70.9932 156.086 68.3116 155.562 65.808 154.535Z" fill="#0065FF"/>
<path d="M83.7452 128.009C83.316 127.492 82.6134 127.294 81.8429 127.397C81.7408 126.849 81.4374 126.358 80.9922 126.022C80.3798 125.575 79.5768 125.52 78.7612 125.771C78.47 123.698 77.1048 122.019 75.2126 121.69C72.7683 121.266 70.3867 123.254 69.8873 126.127C69.8873 126.155 69.8873 126.182 69.8873 126.21C68.5773 125.645 67.2297 125.748 66.4793 126.592C65.4454 127.753 65.9322 129.877 67.566 131.33C68.2531 131.96 69.1051 132.382 70.0228 132.547C70.6326 133.616 72.2011 134.572 74.6279 134.577C77.3683 134.577 80.1013 133.914 80.4928 132.69C81.3259 132.635 82.1187 132.311 82.7514 131.766C84.089 130.647 84.5382 128.968 83.7452 128.009Z" fill="white"/>
<path d="M65.247 132.798C64.7451 133.202 62.9884 136.15 63.937 135.578C64.8856 135.006 65.247 132.798 65.247 132.798Z" fill="#FBFDFF"/>
<path d="M66.2383 138.57C65.9221 138.821 64.8305 140.671 65.4177 140.309C66.0049 139.948 66.2383 138.57 66.2383 138.57Z" fill="#FBFDFF"/>
<path d="M77.7724 138.823C77.4562 139.073 76.3645 140.921 76.9542 140.562C77.544 140.203 77.7724 138.823 77.7724 138.823Z" fill="#FBFDFF"/>
<path d="M72.1586 138.038C71.6567 138.439 69.9 141.391 70.8486 140.816C71.7972 140.241 72.1586 138.038 72.1586 138.038Z" fill="#FBFDFF"/>
<path d="M81.2206 134.748C80.7187 135.149 78.962 138.098 79.9106 137.526C80.8592 136.953 81.2206 134.748 81.2206 134.748Z" fill="#FBFDFF"/>
<path d="M80.7059 141.007C80.204 141.408 78.4473 144.359 79.3984 143.785C80.3496 143.21 80.7059 141.007 80.7059 141.007Z" fill="#FBFDFF"/>
<path d="M76.781 136.165C76.3995 136.466 75.0845 138.695 75.7947 138.261C76.5049 137.826 76.781 136.165 76.781 136.165Z" fill="#FBFDFF"/>
<path d="M70.5697 134.748C70.0678 135.149 68.3111 138.098 69.2597 137.526C70.2084 136.953 70.5697 134.748 70.5697 134.748Z" fill="#FBFDFF"/>
<path d="M61.9495 140.61C61.4476 141.012 59.6908 143.96 60.642 143.388C61.5931 142.816 61.9495 140.61 61.9495 140.61Z" fill="#FBFDFF"/>
<path d="M284.17 88.2183C279.494 88.2183 275.009 86.3616 271.702 83.0562C268.394 79.7509 266.535 75.2675 266.532 70.5916C266.538 65.9175 268.399 61.4369 271.706 58.1339C275.013 54.8309 279.496 52.9756 284.17 52.9756C288.845 52.9784 293.329 54.8379 296.634 58.1453C299.94 61.4526 301.796 65.9372 301.796 70.6131C301.791 75.2842 299.931 79.7622 296.626 83.0632C293.321 86.3642 288.841 88.2183 284.17 88.2183Z" fill="#0065FF"/>
<path d="M284.463 76.1358C287.351 76.1358 289.692 73.7944 289.692 70.9061C289.692 68.0179 287.351 65.6765 284.463 65.6765C281.574 65.6765 279.233 68.0179 279.233 70.9061C279.233 73.7944 281.574 76.1358 284.463 76.1358Z" fill="white"/>
<path d="M284.462 79.0939C284.051 79.0939 283.715 78.7875 283.715 78.3766V78.3169C283.715 77.906 284.051 77.5698 284.462 77.5698C284.873 77.5698 285.209 77.906 285.209 78.3169C285.209 78.7278 284.873 79.0939 284.462 79.0939ZM289.796 76.9871C289.602 76.9871 289.415 76.9123 289.266 76.7704L289.169 76.6733C288.878 76.3819 288.878 75.9112 289.169 75.6199C289.46 75.3285 289.931 75.3285 290.222 75.6199L290.319 75.717C290.611 76.0084 290.611 76.479 290.319 76.7704C290.178 76.9123 289.991 76.9871 289.796 76.9871ZM279.128 76.9871C278.934 76.9871 278.747 76.9123 278.598 76.7704C278.306 76.479 278.306 76.0084 278.598 75.717L278.695 75.6199C278.986 75.3285 279.457 75.3285 279.748 75.6199C280.039 75.9112 280.039 76.3819 279.748 76.6733L279.651 76.7704C279.509 76.9123 279.315 76.9871 279.128 76.9871ZM291.933 71.6528H291.873C291.462 71.6528 291.126 71.3166 291.126 70.9057C291.126 70.4948 291.462 70.1586 291.873 70.1586C292.284 70.1586 292.65 70.4948 292.65 70.9057C292.65 71.3166 292.344 71.6528 291.933 71.6528ZM277.051 71.6528H276.991C276.58 71.6528 276.244 71.3166 276.244 70.9057C276.244 70.4948 276.58 70.1586 276.991 70.1586C277.402 70.1586 277.768 70.4948 277.768 70.9057C277.768 71.3166 277.462 71.6528 277.051 71.6528ZM289.699 66.4157C289.505 66.4157 289.318 66.341 289.169 66.1991C288.878 65.9077 288.878 65.437 289.169 65.1457L289.266 65.0486C289.557 64.7572 290.028 64.7572 290.319 65.0486C290.611 65.3399 290.611 65.8106 290.319 66.1019L290.222 66.1991C290.08 66.341 289.894 66.4157 289.699 66.4157ZM279.225 66.4157C279.031 66.4157 278.844 66.341 278.695 66.1991L278.598 66.0945C278.306 65.8031 278.306 65.3324 278.598 65.0411C278.889 64.7497 279.36 64.7497 279.651 65.0411L279.748 65.1382C280.039 65.4296 280.039 65.9002 279.748 66.1916C279.606 66.341 279.412 66.4157 279.225 66.4157ZM284.462 64.2118C284.051 64.2118 283.715 63.9055 283.715 63.4946V63.4348C283.715 63.0239 284.051 62.6877 284.462 62.6877C284.873 62.6877 285.209 63.0239 285.209 63.4348C285.209 63.8457 284.873 64.2118 284.462 64.2118Z" fill="white"/>
<path d="M250.061 40.23L251.039 42.0249L252.824 43.003L251.039 43.9703L250.061 45.7545L249.094 43.9703L247.299 43.003L249.094 42.0249L250.061 40.23Z" fill="#002255"/>
<path d="M205.865 139.272L206.843 141.067L208.628 142.045L206.843 143.013L205.865 144.808L204.887 143.013L203.103 142.045L204.887 141.067L205.865 139.272Z" fill="#002255"/>
<path d="M58.5316 86.9297L59.9826 89.5737L62.6159 91.0139L59.9826 92.4542L58.5316 95.0982L57.0914 92.4542L54.4581 91.0139L57.0914 89.5737L58.5316 86.9297Z" fill="#002255"/>
<path d="M182.531 0L183.972 2.63326L186.616 4.08424L183.972 5.52448L182.531 8.15774L181.091 5.52448L178.447 4.08424L181.091 2.63326L182.531 0Z" fill="#002255"/>
<path d="M260.723 112.489L262.98 116.605L267.086 118.851L262.98 121.108L260.723 125.225L258.477 121.108L254.36 118.851L258.477 116.605L260.723 112.489Z" fill="#002255"/>
<path d="M150.221 79.8517C150.124 80.1851 149.944 80.4073 149.68 80.5185C149.416 80.6296 149.138 80.6435 148.846 80.5602C148.568 80.4907 148.339 80.3448 148.158 80.1226C147.992 79.8864 147.957 79.5946 148.054 79.2473C147.804 79.6641 147.554 79.8933 147.304 79.935C147.054 79.9628 146.887 79.8586 146.804 79.6224C146.721 79.3724 146.804 79.0459 147.054 78.643C146.804 78.8236 146.54 78.8584 146.262 78.7472C145.998 78.6222 145.776 78.4277 145.595 78.1637C145.415 77.8859 145.317 77.6011 145.304 77.3094C145.29 77.0176 145.408 76.7815 145.658 76.6009C145.213 76.7259 144.894 76.7398 144.699 76.6425C144.519 76.5453 144.484 76.4133 144.595 76.2466C144.72 76.066 145.012 75.9201 145.47 75.809C145.095 75.8229 144.81 75.7396 144.616 75.559C144.421 75.3784 144.31 75.163 144.282 74.913C144.269 74.649 144.345 74.4128 144.512 74.2045C144.692 73.9961 144.97 73.878 145.345 73.8502C145.026 73.8502 144.783 73.7182 144.616 73.4543C144.463 73.1764 144.387 72.8708 144.387 72.5374C144.387 72.1901 144.47 71.8845 144.637 71.6205C144.803 71.3565 145.047 71.2246 145.366 71.2246C145.144 71.1412 144.998 70.9745 144.928 70.7245C144.873 70.4744 144.873 70.1965 144.928 69.8909C144.984 69.5714 145.088 69.2727 145.241 68.9949C145.394 68.7031 145.568 68.4809 145.762 68.328C145.97 68.1613 146.186 68.1197 146.408 68.203C146.214 67.9391 146.158 67.6751 146.241 67.4112C146.325 67.1472 146.484 66.9249 146.721 66.7443C146.957 66.5637 147.214 66.4734 147.492 66.4734C147.769 66.4595 148.006 66.5846 148.2 66.8485C148.145 66.5568 148.193 66.3067 148.346 66.0983C148.513 65.8761 148.735 65.7094 149.013 65.5982C149.291 65.4732 149.582 65.4107 149.888 65.4107C150.194 65.3968 150.458 65.4523 150.68 65.5774C150.916 65.7024 151.069 65.9108 151.138 66.2025C151.152 65.8552 151.277 65.5982 151.513 65.4315C151.75 65.2648 152.014 65.1884 152.305 65.2023C152.611 65.2162 152.875 65.3204 153.097 65.5149C153.319 65.6955 153.424 65.9594 153.41 66.3067C153.521 66.0011 153.715 65.7997 153.993 65.7024C154.271 65.5913 154.57 65.5635 154.889 65.6191C155.223 65.6746 155.521 65.7927 155.785 65.9733C156.063 66.14 156.265 66.3553 156.39 66.6193C156.528 66.8832 156.542 67.168 156.431 67.4737C156.654 67.2653 156.876 67.168 157.098 67.1819C157.32 67.1958 157.501 67.2792 157.64 67.432C157.793 67.5848 157.862 67.7724 157.848 67.9946C157.848 68.2169 157.73 68.4322 157.494 68.6406C157.8 68.5573 158.057 68.5989 158.265 68.7656C158.487 68.9324 158.64 69.1546 158.723 69.4325C158.807 69.6964 158.8 69.9534 158.703 70.2035C158.619 70.4536 158.425 70.6272 158.119 70.7245C158.119 71.1829 158.057 71.4885 157.932 71.6413C157.807 71.7942 157.682 71.7942 157.557 71.6413C157.431 71.4885 157.369 71.1829 157.369 70.7245C157.369 70.9745 157.265 71.176 157.056 71.3288C156.862 71.4816 156.612 71.5858 156.306 71.6413C156.014 71.683 155.716 71.683 155.41 71.6413C155.118 71.5858 154.868 71.4816 154.66 71.3288C154.465 71.176 154.368 70.9745 154.368 70.7245C154.09 71.0162 153.84 71.1482 153.618 71.1204C153.396 71.0787 153.264 70.9467 153.222 70.7245C153.194 70.5022 153.319 70.2521 153.597 69.9743C153.278 70.3355 152.979 70.5091 152.701 70.4952C152.437 70.4674 152.284 70.3285 152.243 70.0785C152.118 70.2174 152 70.2313 151.888 70.1201C151.763 70.3841 151.569 70.6203 151.305 70.8286C151.055 71.0231 150.784 71.1412 150.492 71.1829C150.728 71.4052 150.756 71.6552 150.576 71.9331C150.409 72.2109 150.055 72.336 149.513 72.3082C149.985 72.3221 150.298 72.3985 150.451 72.5374C150.603 72.6763 150.603 72.8152 150.451 72.9542C150.298 73.0931 149.985 73.1625 149.513 73.1625C149.957 73.1486 150.277 73.2251 150.471 73.3918C150.666 73.5446 150.728 73.7182 150.659 73.9127C150.59 74.1072 150.388 74.2531 150.055 74.3503C150.388 74.392 150.659 74.5865 150.867 74.9338C151.09 75.2811 151.187 75.6215 151.159 75.9549C151.242 75.941 151.312 75.9757 151.368 76.0591C151.52 75.7812 151.75 75.5728 152.055 75.4339C152.375 75.2811 152.687 75.2325 152.993 75.2881C153.312 75.3436 153.563 75.5381 153.743 75.8715C153.674 75.5798 153.715 75.3367 153.868 75.1422C154.035 74.9477 154.243 74.8227 154.493 74.7671C154.757 74.6976 155.007 74.7115 155.243 74.8088C155.48 74.906 155.632 75.1005 155.702 75.3922C155.702 74.9894 155.806 74.6837 156.014 74.4754C156.223 74.267 156.466 74.1628 156.744 74.1628C157.022 74.1628 157.265 74.267 157.473 74.4754C157.682 74.6837 157.786 74.9894 157.786 75.3922C158.175 75.3506 158.446 75.427 158.598 75.6215C158.751 75.816 158.772 76.0243 158.661 76.2466C158.55 76.455 158.293 76.5731 157.89 76.6009C158.168 76.7815 158.314 77.0037 158.328 77.2677C158.355 77.5178 158.293 77.7609 158.14 77.997C157.987 78.2193 157.786 78.3791 157.536 78.4763C157.3 78.5597 157.049 78.5111 156.786 78.3305C156.924 78.6083 156.911 78.8861 156.744 79.164C156.577 79.4279 156.334 79.6433 156.014 79.81C155.695 79.9767 155.375 80.0531 155.056 80.0392C154.736 80.0253 154.507 79.8794 154.368 79.6016C154.452 80.0184 154.431 80.3101 154.306 80.4768C154.195 80.6435 154.049 80.6713 153.868 80.5602C153.688 80.4629 153.556 80.2129 153.472 79.81C153.5 80.2962 153.354 80.6296 153.035 80.8102C152.715 80.9908 152.298 81.0047 151.784 80.8519C151.284 80.6991 150.763 80.3657 150.221 79.8517Z" fill="white"/>
<path d="M160.711 78.3721C160.489 78.3721 160.309 78.2749 160.17 78.0804C160.031 77.8859 159.94 77.6497 159.899 77.3719C159.857 77.0802 159.857 76.7884 159.899 76.4967C159.94 76.2049 160.031 75.9618 160.17 75.7673C160.309 75.5728 160.489 75.4756 160.711 75.4756C160.42 75.4756 160.204 75.3714 160.065 75.163C159.927 74.9546 159.857 74.7115 159.857 74.4337C159.857 74.1558 159.927 73.9127 160.065 73.7043C160.204 73.496 160.42 73.3918 160.711 73.3918C160.434 73.3918 160.225 73.2667 160.086 73.0167C159.947 72.7666 159.878 72.4818 159.878 72.1623C159.878 71.8289 159.947 71.5371 160.086 71.2871C160.225 71.037 160.434 70.912 160.711 70.912C160.42 70.912 160.218 70.8425 160.107 70.7036C160.01 70.5647 160.01 70.4258 160.107 70.2868C160.218 70.1479 160.42 70.0785 160.711 70.0785C160.711 69.8701 160.816 69.7103 161.024 69.5992C161.246 69.488 161.503 69.4325 161.795 69.4325C162.087 69.4325 162.344 69.4811 162.566 69.5783C162.788 69.6756 162.899 69.8284 162.899 70.0368C162.969 69.7867 163.087 69.6131 163.254 69.5158C163.434 69.4047 163.622 69.37 163.816 69.4116C164.011 69.4394 164.171 69.5297 164.296 69.6825C164.435 69.8215 164.49 70.009 164.462 70.2452C164.518 70.0785 164.657 69.9534 164.879 69.8701C165.115 69.7867 165.365 69.752 165.629 69.7659C165.907 69.7659 166.143 69.8145 166.338 69.9118C166.546 70.009 166.657 70.1549 166.671 70.3494C166.63 70.0437 166.734 69.8006 166.984 69.62C167.248 69.4394 167.553 69.3283 167.901 69.2866C168.262 69.231 168.588 69.2658 168.88 69.3908C169.172 69.5019 169.338 69.7034 169.38 69.9951C169.644 70.009 169.832 70.1479 169.943 70.4119C170.068 70.6758 170.116 70.9815 170.089 71.3288C170.075 71.6622 169.998 71.9609 169.859 72.2248C169.721 72.4749 169.519 72.593 169.255 72.5791C169.477 72.7736 169.568 72.968 169.526 73.1625C169.484 73.357 169.366 73.489 169.172 73.5585C168.991 73.6279 168.79 73.5654 168.567 73.3709C168.567 73.5793 168.47 73.746 168.276 73.871C168.081 73.9961 167.838 74.0794 167.546 74.1211C167.269 74.1489 166.998 74.135 166.734 74.0794C166.47 74.0239 166.268 73.9197 166.129 73.7669C166.171 73.9752 166.109 74.1558 165.942 74.3087C165.789 74.4476 165.615 74.4962 165.421 74.4545C165.546 74.6768 165.601 74.9685 165.588 75.3297C165.574 75.677 165.49 75.9896 165.338 76.2675C165.199 76.5314 165.004 76.6564 164.754 76.6425C164.99 76.6425 165.171 76.7259 165.296 76.8926C165.421 77.0593 165.483 77.2538 165.483 77.4761C165.483 77.6845 165.421 77.872 165.296 78.0387C165.171 78.2054 164.99 78.2888 164.754 78.2888C164.962 78.3582 165.094 78.4902 165.15 78.6847C165.219 78.8653 165.219 79.0598 165.15 79.2682C165.094 79.4627 164.99 79.6224 164.837 79.7475C164.685 79.8725 164.504 79.9003 164.296 79.8308C164.296 80.0948 164.178 80.2893 163.941 80.4143C163.705 80.5532 163.427 80.6227 163.108 80.6227C162.788 80.6227 162.504 80.5532 162.253 80.4143C162.017 80.2893 161.899 80.0948 161.899 79.8308C161.899 80.0948 161.844 80.2823 161.732 80.3935C161.621 80.5185 161.482 80.5393 161.316 80.456C161.163 80.3726 161.024 80.1642 160.899 79.8308C160.788 79.4974 160.725 79.0112 160.711 78.3721Z" fill="white"/>
<path d="M175.415 79.9767C175.331 80.2684 175.178 80.456 174.956 80.5393C174.734 80.6366 174.498 80.6505 174.248 80.581C174.011 80.5254 173.817 80.4004 173.664 80.2059C173.511 80.0114 173.477 79.7683 173.56 79.4766C173.407 79.6849 173.226 79.803 173.018 79.8308C172.81 79.8447 172.615 79.7891 172.435 79.6641C172.268 79.5391 172.157 79.3793 172.101 79.1848C172.06 78.9764 172.122 78.7611 172.289 78.5388C172.08 78.6361 171.872 78.5944 171.664 78.4138C171.455 78.2193 171.282 77.9693 171.143 77.6636C171.004 77.3441 170.934 77.0454 170.934 76.7676C170.934 76.4897 171.038 76.3022 171.247 76.2049C170.997 76.2049 170.809 76.0869 170.684 75.8507C170.559 75.6145 170.497 75.3367 170.497 75.0172C170.497 74.6976 170.559 74.4198 170.684 74.1836C170.809 73.9475 170.99 73.8294 171.226 73.8294C170.851 73.7182 170.629 73.5515 170.559 73.3292C170.49 73.107 170.538 72.9194 170.705 72.7666C170.886 72.6138 171.163 72.593 171.539 72.7041C171.414 72.593 171.372 72.4332 171.414 72.2248C171.469 72.0025 171.58 71.7733 171.747 71.5371C171.914 71.301 172.101 71.0926 172.31 70.912C172.518 70.7175 172.719 70.5786 172.914 70.4952C173.122 70.4119 173.289 70.4258 173.414 70.5369C173.345 70.3007 173.407 70.0924 173.602 69.9118C173.81 69.7312 174.067 69.5992 174.373 69.5158C174.678 69.4186 174.963 69.3977 175.227 69.4533C175.491 69.495 175.658 69.6339 175.727 69.8701C175.741 69.6061 175.894 69.4255 176.186 69.3283C176.491 69.2171 176.825 69.1755 177.186 69.2033C177.561 69.231 177.887 69.3213 178.165 69.4742C178.443 69.627 178.568 69.8353 178.54 70.0993C178.651 69.8353 178.804 69.6964 178.999 69.6825C179.207 69.6548 179.374 69.7173 179.499 69.8701C179.638 70.0229 179.659 70.2313 179.561 70.4952C179.714 70.3424 179.916 70.3216 180.166 70.4327C180.43 70.53 180.68 70.6967 180.916 70.9328C181.166 71.169 181.34 71.4191 181.437 71.683C181.548 71.947 181.527 72.1554 181.374 72.3082C181.583 72.2665 181.77 72.336 181.937 72.5166C182.118 72.6972 182.256 72.9333 182.354 73.2251C182.465 73.5168 182.527 73.8224 182.541 74.1419C182.555 74.4476 182.52 74.7185 182.437 74.9546C182.354 75.1908 182.201 75.3297 181.979 75.3714C182.381 75.552 182.562 75.6909 182.52 75.7882C182.479 75.8715 182.256 75.8229 181.854 75.6423C181.854 75.8229 181.735 75.9618 181.499 76.0591C181.277 76.1424 181.02 76.1841 180.728 76.1841C180.437 76.1841 180.173 76.1424 179.936 76.0591C179.714 75.9618 179.603 75.8229 179.603 75.6423C179.603 75.8785 179.499 76.0591 179.29 76.1841C179.082 76.2952 178.839 76.3578 178.561 76.3716C178.297 76.3716 178.061 76.3161 177.853 76.2049C177.644 76.0799 177.54 75.9063 177.54 75.684C177.554 75.9202 177.436 76.1146 177.186 76.2675C176.95 76.4064 176.679 76.4897 176.373 76.5175C176.512 76.6842 176.623 76.8648 176.706 77.0593C176.804 77.2399 176.866 77.4066 176.894 77.5594C177.033 77.4066 177.241 77.2746 177.519 77.1635C177.797 77.0524 178.082 76.9829 178.374 76.9551C178.665 76.9273 178.922 76.9482 179.145 77.0176C179.381 77.0732 179.52 77.1982 179.561 77.3927C179.561 77.1566 179.652 76.976 179.832 76.8509C180.027 76.7259 180.249 76.6634 180.499 76.6634C180.749 76.6634 180.964 76.7259 181.145 76.8509C181.34 76.976 181.437 77.1566 181.437 77.3927C181.715 77.4483 181.881 77.5664 181.937 77.747C181.992 77.9137 181.958 78.0665 181.833 78.2054C181.708 78.3305 181.513 78.3652 181.249 78.3096C181.374 78.4902 181.395 78.6778 181.312 78.8723C181.228 79.0529 181.089 79.2126 180.895 79.3515C180.714 79.4766 180.52 79.546 180.312 79.5599C180.117 79.5738 179.957 79.4974 179.832 79.3307C179.916 79.5946 179.874 79.8239 179.707 80.0184C179.554 80.2129 179.346 80.3518 179.082 80.4351C178.818 80.5185 178.561 80.5185 178.311 80.4351C178.075 80.3657 177.915 80.199 177.832 79.935C177.86 80.3101 177.755 80.5671 177.519 80.706C177.297 80.8449 176.991 80.8519 176.602 80.7269C176.227 80.6157 175.831 80.3657 175.415 79.9767ZM176.269 74.0794C176.269 73.8016 176.345 73.6488 176.498 73.621C176.651 73.5793 176.755 73.6627 176.811 73.871C176.852 73.746 176.936 73.6279 177.061 73.5168C177.186 73.4057 177.318 73.3292 177.457 73.2876C177.29 73.1625 177.151 72.9819 177.04 72.7458C176.929 72.5096 176.894 72.3012 176.936 72.1206C176.811 72.1901 176.658 72.2318 176.477 72.2457C176.311 72.2595 176.165 72.2387 176.04 72.1831C176.081 72.336 176.074 72.5166 176.019 72.7249C175.963 72.9333 175.873 73.1209 175.748 73.2876C175.637 73.4543 175.505 73.5446 175.352 73.5585C175.533 73.6001 175.665 73.6974 175.748 73.8502C175.845 74.003 176.019 74.0794 176.269 74.0794Z" fill="white"/>
<path d="M186.46 79.7475C186.307 79.9281 186.119 79.9975 185.897 79.9558C185.675 79.9142 185.467 79.81 185.272 79.6433C185.091 79.4766 184.966 79.289 184.897 79.0806C184.827 78.8584 184.869 78.6639 185.022 78.4972C184.772 78.5944 184.557 78.6083 184.376 78.5388C184.209 78.4555 184.091 78.3374 184.022 78.1846C183.952 78.0179 183.952 77.8442 184.022 77.6636C184.105 77.483 184.272 77.3441 184.522 77.2469C184.23 77.2746 184.001 77.2121 183.834 77.0593C183.681 76.9065 183.591 76.719 183.563 76.4967C183.549 76.2744 183.605 76.073 183.73 75.8924C183.869 75.7118 184.084 75.6076 184.376 75.5798C184.098 75.5798 183.89 75.4756 183.751 75.2672C183.612 75.0588 183.542 74.8157 183.542 74.5379C183.542 74.26 183.612 74.0169 183.751 73.8085C183.89 73.6001 184.098 73.496 184.376 73.496C184.056 73.496 183.841 73.4265 183.73 73.2876C183.633 73.1486 183.633 73.0097 183.73 72.8708C183.841 72.7319 184.056 72.6624 184.376 72.6624C184.029 72.6624 183.793 72.5721 183.667 72.3915C183.556 72.2109 183.556 72.0303 183.667 71.8497C183.793 71.6691 184.029 71.5788 184.376 71.5788C184.07 71.5094 183.862 71.3774 183.751 71.1829C183.64 70.9884 183.605 70.7939 183.647 70.5994C183.702 70.391 183.82 70.2313 184.001 70.1201C184.195 69.9951 184.445 69.9673 184.751 70.0368C184.751 69.7867 184.848 69.5922 185.043 69.4533C185.251 69.3005 185.501 69.2033 185.793 69.1616C186.099 69.106 186.397 69.106 186.689 69.1616C186.981 69.2033 187.224 69.3005 187.418 69.4533C187.627 69.5922 187.731 69.7867 187.731 70.0368C188.009 69.8701 188.252 69.8492 188.46 69.9743C188.669 70.0993 188.787 70.2868 188.815 70.5369C188.842 70.7731 188.717 70.9745 188.439 71.1412C188.62 71.1412 188.752 71.2246 188.835 71.3913C188.933 71.558 188.981 71.7525 188.981 71.9748C188.981 72.197 188.933 72.3915 188.835 72.5582C188.752 72.7249 188.62 72.8083 188.439 72.8083C188.648 72.8083 188.808 72.8986 188.919 73.0792C189.03 73.2598 189.085 73.4682 189.085 73.7043C189.085 73.9405 189.03 74.1558 188.919 74.3503C188.808 74.5309 188.648 74.6212 188.439 74.6212C188.648 74.6073 188.808 74.6768 188.919 74.8296C189.044 74.9824 189.106 75.17 189.106 75.3922C189.12 75.6006 189.079 75.7812 188.981 75.934C189.231 75.9063 189.509 75.9549 189.815 76.0799C190.134 76.2049 190.384 76.3647 190.565 76.5592C190.621 76.4064 190.704 76.2744 190.815 76.1633C190.94 76.0382 191.072 75.9618 191.211 75.934C191.003 75.8229 190.926 75.6562 190.982 75.4339C191.051 75.2116 191.246 75.1005 191.565 75.1005C191.371 75.1005 191.218 74.9755 191.107 74.7254C191.01 74.4754 190.961 74.1906 190.961 73.871C190.961 73.5376 191.01 73.2528 191.107 73.0167C191.218 72.7666 191.371 72.6416 191.565 72.6416C191.287 72.6416 191.1 72.5652 191.003 72.4124C190.919 72.2595 190.919 72.1067 191.003 71.9539C191.1 71.8011 191.287 71.7247 191.565 71.7247C191.357 71.6969 191.204 71.5927 191.107 71.4121C191.023 71.2315 190.996 71.0301 191.023 70.8078C191.051 70.5855 191.128 70.398 191.253 70.2452C191.378 70.0785 191.551 70.009 191.774 70.0368C191.774 69.7312 191.85 69.5019 192.003 69.3491C192.17 69.1963 192.35 69.1199 192.545 69.1199C192.753 69.1199 192.934 69.1963 193.086 69.3491C193.253 69.5019 193.336 69.7312 193.336 70.0368C193.336 69.7173 193.427 69.5089 193.607 69.4116C193.788 69.3005 193.969 69.3005 194.149 69.4116C194.33 69.5089 194.42 69.7173 194.42 70.0368C194.531 69.8284 194.677 69.7103 194.858 69.6825C195.038 69.6548 195.205 69.6895 195.358 69.7867C195.525 69.8701 195.636 70.0021 195.691 70.1827C195.761 70.3494 195.733 70.5369 195.608 70.7453C195.886 70.7453 196.094 70.8148 196.233 70.9537C196.372 71.0926 196.441 71.2593 196.441 71.4538C196.441 71.6344 196.372 71.8011 196.233 71.9539C196.094 72.0928 195.886 72.1623 195.608 72.1623C195.955 72.1623 196.184 72.2595 196.296 72.454C196.407 72.6346 196.407 72.8222 196.296 73.0167C196.184 73.2112 195.955 73.3084 195.608 73.3084C195.83 73.3084 195.997 73.4334 196.108 73.6835C196.219 73.9197 196.275 74.1975 196.275 74.517C196.275 74.8366 196.219 75.1213 196.108 75.3714C195.997 75.6076 195.83 75.7257 195.608 75.7257C195.886 75.7257 196.087 75.8298 196.212 76.0382C196.351 76.2327 196.421 76.4619 196.421 76.7259C196.421 76.9899 196.351 77.2191 196.212 77.4136C196.087 77.6081 195.886 77.7053 195.608 77.7053C195.775 77.747 195.879 77.8859 195.92 78.1221C195.962 78.3443 195.948 78.6014 195.879 78.8931C195.823 79.1709 195.726 79.4071 195.587 79.6016C195.462 79.7961 195.316 79.8725 195.149 79.8308C195.149 80.192 195.052 80.4282 194.858 80.5393C194.663 80.6644 194.469 80.6644 194.274 80.5393C194.08 80.4282 193.982 80.192 193.982 79.8308C193.982 80.1781 193.878 80.4073 193.67 80.5185C193.475 80.6435 193.274 80.6505 193.066 80.5393C192.857 80.4282 192.753 80.192 192.753 79.8308C192.656 80.1226 192.531 80.3101 192.378 80.3935C192.225 80.4768 192.086 80.4699 191.961 80.3726C191.85 80.2754 191.801 80.1087 191.815 79.8725C191.704 80.0948 191.496 80.2406 191.19 80.3101C190.898 80.3796 190.621 80.3657 190.357 80.2684C190.093 80.1573 189.961 79.9628 189.961 79.6849C189.975 79.8794 189.877 80.0461 189.669 80.1851C189.461 80.3101 189.176 80.3865 188.815 80.4143C188.467 80.4421 188.085 80.4073 187.668 80.3101C187.252 80.2129 186.849 80.0253 186.46 79.7475Z" fill="white"/>
<path d="M148.525 42.3685C148.525 42.3685 148.277 42.3685 147.783 42.3685H145.633L137.325 42.2502C130.146 42.1642 119.688 41.7021 106.908 43.1423C103.569 43.5137 100.258 44.1098 96.9987 44.9265C95.2769 45.3695 93.5974 45.9629 91.9794 46.6999C91.1599 47.0874 90.385 47.5631 89.6686 48.1187C88.9457 48.6533 88.3811 49.3739 88.0349 50.2038C87.7426 51.0598 87.7927 51.9956 88.1746 52.8155C88.5795 53.6665 89.1286 54.4411 89.7976 55.1049C91.2261 56.454 92.8143 57.6235 94.5267 58.5872C98.1318 60.6101 101.9 62.3286 105.791 63.7248C114.16 66.7321 122.716 69.1949 131.403 71.0979C140.421 73.14 149.857 74.849 159.574 76.2354C177.821 78.9734 196.262 80.2028 214.711 79.9113C223.191 79.6426 231.317 79.0299 238.604 77.0738C240.383 76.6036 242.103 75.9329 243.731 75.0747C244.513 74.6566 245.236 74.1361 245.88 73.527C246.471 72.9391 246.878 72.1923 247.052 71.3773C247.124 70.5524 246.908 69.7278 246.439 69.045C245.975 68.3365 245.426 67.6869 244.805 67.1104C243.583 66.0244 242.259 65.0598 240.85 64.2299C235.816 61.3829 230.522 59.022 225.04 57.1792C220.225 55.4703 216.011 54.2128 212.551 53.224C209.09 52.2351 206.381 51.5473 204.543 51.0744L202.458 50.537L201.749 50.3435L202.469 50.4832L204.619 50.9561C206.467 51.3968 209.176 52.0309 212.647 53.009C216.119 53.9871 220.354 55.1586 225.19 56.8783C230.705 58.6932 236.032 61.0364 241.097 63.8752C242.536 64.7109 243.887 65.6904 245.128 66.7987C245.771 67.3832 246.342 68.0437 246.826 68.7656C247.349 69.5312 247.592 70.4536 247.514 71.3773C247.331 72.2966 246.887 73.1436 246.235 73.8171C245.569 74.4625 244.816 75.0123 243.999 75.4508C242.339 76.3357 240.583 77.028 238.765 77.5145C231.413 79.5136 223.277 80.1262 214.775 80.4164C196.292 80.7359 177.813 79.5208 159.531 76.7836C149.857 75.3864 140.345 73.6774 131.306 71.6138C122.597 69.7053 114.023 67.2243 105.64 64.1869C101.736 62.7771 97.9538 61.048 94.3332 59.0171C92.5685 58.013 90.9334 56.7966 89.4644 55.3951C88.7571 54.6874 88.1788 53.8618 87.7555 52.9553C87.3202 52.0277 87.2662 50.9665 87.605 49.9996C87.9859 49.0916 88.6017 48.3014 89.3891 47.7102C90.1364 47.1403 90.9437 46.6537 91.7967 46.2592C93.4411 45.5088 95.1498 44.9081 96.902 44.4643C100.18 43.6552 103.508 43.0698 106.865 42.7124C116.989 41.7562 127.169 41.53 137.325 42.0353L145.612 42.261L147.762 42.3255L148.525 42.3685Z" fill="#002255"/>
<path d="M119.831 57.9753C115.508 57.9753 111.362 56.258 108.305 53.2011C105.248 50.1442 103.531 45.9982 103.531 41.6752C103.531 37.3521 105.248 33.2061 108.305 30.1492C111.362 27.0923 115.508 25.375 119.831 25.375C124.154 25.375 128.3 27.0923 131.357 30.1492C134.414 33.2061 136.131 37.3521 136.131 41.6752C136.131 45.9982 134.414 50.1442 131.357 53.2011C128.3 56.258 124.154 57.9753 119.831 57.9753Z" fill="#0065FF"/>
<path d="M127.386 39.0345C127.386 39.8658 127.003 40.6156 126.383 41.1046C125.935 41.4714 125.356 41.6914 124.729 41.6914C123.27 41.6914 122.08 40.5015 122.08 39.0427C122.08 38.3173 122.373 37.6572 122.862 37.1763V37.1681C123.343 36.6873 124.003 36.3857 124.729 36.3857C126.196 36.3857 127.386 37.5757 127.386 39.0345Z" fill="white"/>
<path d="M126.497 47.1602C125.642 47.9426 124.541 48.3746 123.376 48.3746H114.916C112.683 48.2116 111.689 46.4919 111.689 44.9597C111.689 43.5905 112.479 42.0746 114.215 41.6508C113.457 38.733 114.908 36.6955 116.603 35.7257C118.282 34.7721 120.646 34.6172 122.422 35.9294C122.268 36.0435 122.129 36.1658 121.99 36.3043L121.64 36.6711V36.72C121.135 37.3801 120.858 38.187 120.858 39.0346C120.858 41.1699 122.602 42.9059 124.737 42.9059C125.617 42.9059 126.473 42.6043 127.141 42.0583C127.264 41.9605 127.386 41.8545 127.492 41.7404C128.299 43.4356 128.184 45.6851 126.497 47.1602Z" fill="white"/>
</g>
<defs>
<clipPath id="clip0_1_1023">
<rect width="354" height="143" fill="white"/>
</clipPath>
</defs>
</svg>
