<svg width="355" height="127" viewBox="0 0 355 127" fill="none" xmlns="http://www.w3.org/2000/svg">
<g clip-path="url(#clip0_1_1165)">
<path d="M296.929 55.9889V48.2789H286.365V2.44148H279.918V48.2789H269.089V36.5488C270.732 36.2203 272.178 35.3582 273.143 34.1313C274.108 32.9044 274.524 31.4013 274.307 29.9165C274.091 28.4317 273.258 27.0724 271.973 26.1049C270.687 25.1374 269.042 24.6315 267.359 24.6863C265.676 24.7412 264.076 25.3529 262.874 26.4015C261.672 27.45 260.954 28.8599 260.86 30.3548C260.766 31.8497 261.304 33.3218 262.368 34.4825C263.432 35.6432 264.945 36.409 266.611 36.6296V48.2789H143.853V45.5804H137.402V48.2789H62.7675V45.5804H56.3164V48.2789H44.0666V30.3588H48.0232V26.9481H52.3226V20.9417H48.0232V17.5273H44.0666V9.40613H46.7966V3.6714H44.0666V0H35.3935V3.6714H32.6677V9.40613H35.3935V52.1339C35.3935 52.6401 35.5057 53.1414 35.7236 53.6091C35.9415 54.0768 36.261 54.5018 36.6637 54.8598C37.0663 55.2177 37.5444 55.5017 38.0705 55.6954C38.5967 55.8892 39.1606 55.9889 39.7301 55.9889H56.3164V76.9489H36.9671V74.2504H30.5159V76.9489H18.262V59.0288H22.2145V55.6144H26.5221V49.608H22.2227V46.1972H18.262V38.0724H20.9879V32.3414H18.262V0.256998H9.5889V32.3414H6.86719V38.0724H9.5889V80.8039C9.5889 81.8263 10.0458 82.8068 10.859 83.5297C11.6723 84.2527 12.7753 84.6588 13.9255 84.6588H30.5159V159.728H36.9671V84.6588H56.3164V159.853H62.7675V84.6588H111.601V159.86H118.052V84.6588H137.402V159.647H143.853V84.6588H279.918V86.8103H286.365V84.6588H296.215V76.9489H286.385V55.9889H296.929ZM118.052 76.9489V74.2504H111.601V76.9489H62.7675V55.9889H137.402V76.9489H118.052ZM279.918 76.9489H143.853V55.9889H279.918V76.9489Z" fill="#002255"/>
<path d="M267.771 30.843L269.419 33.4791" stroke="#0065FF" stroke-miterlimit="10"/>
<path d="M268.931 34.9824C271.492 34.4137 273.049 32.1075 272.409 29.8315C271.769 27.5555 269.175 26.1715 266.614 26.7402C264.054 27.309 262.497 29.6151 263.137 31.8911C263.777 34.1671 266.371 35.5512 268.931 34.9824Z" stroke="#0065FF" stroke-miterlimit="10"/>
<path d="M179.788 1.07153H152.1V159.742H179.788V1.07153Z" fill="#0065FF" stroke="#002255" stroke-linecap="round" stroke-linejoin="round"/>
<path d="M176.133 27.3481V52.2586" stroke="#002255" stroke-linecap="round" stroke-linejoin="round"/>
<path d="M175.84 13.5991V11.7817" stroke="#002255" stroke-linecap="round" stroke-linejoin="round"/>
<path d="M179.499 24.5178C180.929 24.5178 182.089 23.4871 182.089 22.2158C182.089 20.9444 180.929 19.9138 179.499 19.9138C178.069 19.9138 176.91 20.9444 176.91 22.2158C176.91 23.4871 178.069 24.5178 179.499 24.5178Z" fill="#0065FF" stroke="#002255" stroke-linecap="round" stroke-linejoin="round"/>
<path d="M172.722 24.5178C174.152 24.5178 175.311 23.4871 175.311 22.2158C175.311 20.9444 174.152 19.9138 172.722 19.9138C171.292 19.9138 170.132 20.9444 170.132 22.2158C170.132 23.4871 171.292 24.5178 172.722 24.5178Z" fill="#0065FF" stroke="#002255" stroke-linecap="round" stroke-linejoin="round"/>
<path d="M165.949 24.5178C167.379 24.5178 168.538 23.4871 168.538 22.2158C168.538 20.9444 167.379 19.9138 165.949 19.9138C164.519 19.9138 163.359 20.9444 163.359 22.2158C163.359 23.4871 164.519 24.5178 165.949 24.5178Z" fill="#0065FF" stroke="#002255" stroke-linecap="round" stroke-linejoin="round"/>
<path d="M159.175 24.5178C160.606 24.5178 161.765 23.4871 161.765 22.2158C161.765 20.9444 160.606 19.9138 159.175 19.9138C157.745 19.9138 156.586 20.9444 156.586 22.2158C156.586 23.4871 157.745 24.5178 159.175 24.5178Z" fill="#0065FF" stroke="#002255" stroke-linecap="round" stroke-linejoin="round"/>
<path d="M152.398 24.5178C153.828 24.5178 154.987 23.4871 154.987 22.2158C154.987 20.9444 153.828 19.9138 152.398 19.9138C150.968 19.9138 149.808 20.9444 149.808 22.2158C149.808 23.4871 150.968 24.5178 152.398 24.5178Z" fill="#0065FF" stroke="#002255" stroke-linecap="round" stroke-linejoin="round"/>
<path d="M179.499 19.9172C178.987 19.9179 178.486 19.7835 178.06 19.531C177.633 19.2785 177.301 18.9192 177.104 18.4987C176.907 18.0781 176.856 17.6151 176.955 17.1684C177.054 16.7216 177.301 16.3111 177.663 15.9888C178.025 15.6665 178.486 15.4469 178.989 15.3577C179.491 15.2686 180.012 15.314 180.485 15.4881C180.959 15.6622 181.363 15.9573 181.648 16.3359C181.933 16.7145 182.085 17.1598 182.085 17.6152C182.085 18.2251 181.813 18.81 181.328 19.2416C180.843 19.6732 180.186 19.9162 179.499 19.9172Z" fill="#0065FF" stroke="#002255" stroke-linecap="round" stroke-linejoin="round"/>
<path d="M172.726 19.9172C172.214 19.9172 171.713 19.7822 171.287 19.5292C170.862 19.2763 170.53 18.9168 170.334 18.4961C170.138 18.0755 170.086 17.6126 170.186 17.1661C170.286 16.7196 170.533 16.3094 170.895 15.9875C171.257 15.6655 171.719 15.4463 172.221 15.3575C172.723 15.2686 173.244 15.3142 173.717 15.4885C174.19 15.6627 174.595 15.9577 174.879 16.3363C175.164 16.7149 175.316 17.1599 175.316 17.6152C175.316 18.2257 175.043 18.8112 174.557 19.2429C174.071 19.6746 173.413 19.9172 172.726 19.9172Z" fill="#0065FF" stroke="#002255" stroke-linecap="round" stroke-linejoin="round"/>
<path d="M165.949 19.9172C165.437 19.9172 164.936 19.7822 164.51 19.5292C164.084 19.2763 163.752 18.9168 163.556 18.4961C163.36 18.0755 163.309 17.6126 163.409 17.1661C163.509 16.7196 163.755 16.3094 164.118 15.9875C164.48 15.6655 164.941 15.4463 165.443 15.3575C165.946 15.2686 166.466 15.3142 166.94 15.4885C167.413 15.6627 167.817 15.9577 168.102 16.3363C168.386 16.7149 168.538 17.1599 168.538 17.6152C168.538 18.2257 168.265 18.8112 167.78 19.2429C167.294 19.6746 166.635 19.9172 165.949 19.9172Z" fill="#0065FF" stroke="#002255" stroke-linecap="round" stroke-linejoin="round"/>
<path d="M159.175 19.9172C158.663 19.9179 158.162 19.7835 157.735 19.531C157.309 19.2785 156.976 18.9192 156.78 18.4987C156.583 18.0781 156.531 17.6151 156.631 17.1684C156.73 16.7216 156.977 16.3111 157.339 15.9888C157.701 15.6665 158.162 15.4469 158.664 15.3577C159.167 15.2686 159.688 15.314 160.161 15.4881C160.635 15.6622 161.039 15.9573 161.324 16.3359C161.609 16.7145 161.761 17.1598 161.761 17.6152C161.761 18.2251 161.488 18.81 161.004 19.2416C160.519 19.6732 159.861 19.9162 159.175 19.9172Z" fill="#0065FF" stroke="#002255" stroke-linecap="round" stroke-linejoin="round"/>
<path d="M152.398 19.9172C151.886 19.9172 151.385 19.7822 150.959 19.5292C150.533 19.2763 150.201 18.9168 150.005 18.4961C149.809 18.0755 149.758 17.6126 149.858 17.1661C149.958 16.7196 150.205 16.3094 150.567 15.9875C150.929 15.6655 151.39 15.4463 151.893 15.3575C152.395 15.2686 152.916 15.3142 153.389 15.4885C153.862 15.6627 154.266 15.9577 154.551 16.3363C154.836 16.7149 154.987 17.1599 154.987 17.6152C154.987 18.2257 154.715 18.8112 154.229 19.2429C153.743 19.6746 153.085 19.9172 152.398 19.9172Z" fill="#0065FF" stroke="#002255" stroke-linecap="round" stroke-linejoin="round"/>
<path d="M183.212 22.7772V16.9617L148.875 16.9617V22.7772H183.212Z" fill="#0065FF" stroke="#002255" stroke-linecap="round" stroke-linejoin="round"/>
<path d="M183.092 19.7673H148.995" stroke="#002255" stroke-linecap="round" stroke-linejoin="round"/>
<path d="M179.499 75.5756C178.987 75.5763 178.486 75.442 178.06 75.1895C177.633 74.937 177.301 74.5777 177.104 74.1571C176.907 73.7366 176.856 73.2736 176.955 72.8268C177.054 72.38 177.301 71.9695 177.663 71.6472C178.025 71.3249 178.486 71.1053 178.989 71.0162C179.491 70.9271 180.012 70.9724 180.485 71.1466C180.959 71.3207 181.363 71.6157 181.648 71.9944C181.933 72.373 182.085 72.8182 182.085 73.2736C182.085 73.8835 181.813 74.4685 181.328 74.9001C180.843 75.3317 180.186 75.5746 179.499 75.5756Z" fill="#0065FF" stroke="#002255" stroke-linecap="round" stroke-linejoin="round"/>
<path d="M172.726 75.5756C172.214 75.5756 171.713 75.4406 171.287 75.1877C170.862 74.9347 170.53 74.5752 170.334 74.1546C170.138 73.7339 170.086 73.2711 170.186 72.8246C170.286 72.378 170.533 71.9678 170.895 71.6459C171.257 71.324 171.719 71.1047 172.221 71.0159C172.723 70.9271 173.244 70.9727 173.717 71.1469C174.19 71.3211 174.595 71.6162 174.879 71.9947C175.164 72.3733 175.316 72.8184 175.316 73.2736C175.316 73.8842 175.043 74.4697 174.557 74.9014C174.071 75.3331 173.413 75.5756 172.726 75.5756Z" fill="#0065FF" stroke="#002255" stroke-linecap="round" stroke-linejoin="round"/>
<path d="M165.949 75.5756C165.437 75.5756 164.936 75.4406 164.51 75.1877C164.084 74.9347 163.752 74.5752 163.556 74.1546C163.36 73.7339 163.309 73.2711 163.409 72.8246C163.509 72.378 163.755 71.9678 164.118 71.6459C164.48 71.324 164.941 71.1047 165.443 71.0159C165.946 70.9271 166.466 70.9727 166.94 71.1469C167.413 71.3211 167.817 71.6162 168.102 71.9947C168.386 72.3733 168.538 72.8184 168.538 73.2736C168.538 73.8842 168.265 74.4697 167.78 74.9014C167.294 75.3331 166.635 75.5756 165.949 75.5756Z" fill="#0065FF" stroke="#002255" stroke-linecap="round" stroke-linejoin="round"/>
<path d="M159.175 75.5756C158.663 75.5763 158.162 75.442 157.735 75.1895C157.309 74.937 156.976 74.5777 156.78 74.1571C156.583 73.7366 156.531 73.2736 156.631 72.8268C156.73 72.38 156.977 71.9695 157.339 71.6472C157.701 71.3249 158.162 71.1053 158.664 71.0162C159.167 70.9271 159.688 70.9724 160.161 71.1466C160.635 71.3207 161.039 71.6157 161.324 71.9944C161.609 72.373 161.761 72.8182 161.761 73.2736C161.761 73.8835 161.488 74.4685 161.004 74.9001C160.519 75.3317 159.861 75.5746 159.175 75.5756Z" fill="#0065FF" stroke="#002255" stroke-linecap="round" stroke-linejoin="round"/>
<path d="M152.398 75.5756C151.886 75.5756 151.385 75.4406 150.959 75.1877C150.533 74.9347 150.201 74.5752 150.005 74.1546C149.809 73.7339 149.758 73.2711 149.858 72.8246C149.958 72.378 150.205 71.9678 150.567 71.6459C150.929 71.324 151.39 71.1047 151.893 71.0159C152.395 70.9271 152.916 70.9727 153.389 71.1469C153.862 71.3211 154.266 71.6162 154.551 71.9947C154.836 72.3733 154.987 72.8184 154.987 73.2736C154.987 73.8842 154.715 74.4697 154.229 74.9014C153.743 75.3331 153.085 75.5756 152.398 75.5756Z" fill="#0065FF" stroke="#002255" stroke-linecap="round" stroke-linejoin="round"/>
<path d="M179.499 70.975C180.929 70.975 182.089 69.9444 182.089 68.6731C182.089 67.4017 180.929 66.3711 179.499 66.3711C178.069 66.3711 176.91 67.4017 176.91 68.6731C176.91 69.9444 178.069 70.975 179.499 70.975Z" fill="#0065FF" stroke="#002255" stroke-linecap="round" stroke-linejoin="round"/>
<path d="M172.722 70.975C174.152 70.975 175.311 69.9444 175.311 68.6731C175.311 67.4017 174.152 66.3711 172.722 66.3711C171.292 66.3711 170.132 67.4017 170.132 68.6731C170.132 69.9444 171.292 70.975 172.722 70.975Z" fill="#0065FF" stroke="#002255" stroke-linecap="round" stroke-linejoin="round"/>
<path d="M165.949 70.975C167.379 70.975 168.538 69.9444 168.538 68.6731C168.538 67.4017 167.379 66.3711 165.949 66.3711C164.519 66.3711 163.359 67.4017 163.359 68.6731C163.359 69.9444 164.519 70.975 165.949 70.975Z" fill="#0065FF" stroke="#002255" stroke-linecap="round" stroke-linejoin="round"/>
<path d="M159.175 70.975C160.606 70.975 161.765 69.9444 161.765 68.6731C161.765 67.4017 160.606 66.3711 159.175 66.3711C157.745 66.3711 156.586 67.4017 156.586 68.6731C156.586 69.9444 157.745 70.975 159.175 70.975Z" fill="#0065FF" stroke="#002255" stroke-linecap="round" stroke-linejoin="round"/>
<path d="M152.398 70.975C153.828 70.975 154.987 69.9444 154.987 68.6731C154.987 67.4017 153.828 66.3711 152.398 66.3711C150.968 66.3711 149.808 67.4017 149.808 68.6731C149.808 69.9444 150.968 70.975 152.398 70.975Z" fill="#0065FF" stroke="#002255" stroke-linecap="round" stroke-linejoin="round"/>
<path d="M183.216 73.835V68.0195H148.879V73.835H183.216Z" fill="#0065FF" stroke="#002255" stroke-linecap="round" stroke-linejoin="round"/>
<path d="M183.092 70.8252H148.995" stroke="#002255" stroke-linecap="round" stroke-linejoin="round"/>
<path d="M130.554 0.858887H123.409V159.61H130.554V0.858887Z" fill="#0065FF" stroke="#002255" stroke-linecap="round" stroke-linejoin="round"/>
<path d="M122.93 55.4675C123.352 55.4675 123.694 55.1635 123.694 54.7883C123.694 54.4132 123.352 54.1091 122.93 54.1091C122.508 54.1091 122.166 54.4132 122.166 54.7883C122.166 55.1635 122.508 55.4675 122.93 55.4675Z" fill="#0065FF" stroke="#002255" stroke-linecap="round" stroke-linejoin="round"/>
<path d="M124.937 55.4675C125.359 55.4675 125.701 55.1635 125.701 54.7883C125.701 54.4132 125.359 54.1091 124.937 54.1091C124.515 54.1091 124.173 54.4132 124.173 54.7883C124.173 55.1635 124.515 55.4675 124.937 55.4675Z" fill="#0065FF" stroke="#002255" stroke-linecap="round" stroke-linejoin="round"/>
<path d="M126.94 55.4675C127.362 55.4675 127.704 55.1635 127.704 54.7883C127.704 54.4132 127.362 54.1091 126.94 54.1091C126.518 54.1091 126.176 54.4132 126.176 54.7883C126.176 55.1635 126.518 55.4675 126.94 55.4675Z" fill="#0065FF" stroke="#002255" stroke-linecap="round" stroke-linejoin="round"/>
<path d="M128.943 55.4675C129.365 55.4675 129.707 55.1635 129.707 54.7883C129.707 54.4132 129.365 54.1091 128.943 54.1091C128.521 54.1091 128.179 54.4132 128.179 54.7883C128.179 55.1635 128.521 55.4675 128.943 55.4675Z" fill="#0065FF" stroke="#002255" stroke-linecap="round" stroke-linejoin="round"/>
<path d="M130.946 55.4675C131.368 55.4675 131.71 55.1635 131.71 54.7883C131.71 54.4132 131.368 54.1091 130.946 54.1091C130.524 54.1091 130.182 54.4132 130.182 54.7883C130.182 55.1635 130.524 55.4675 130.946 55.4675Z" fill="#0065FF" stroke="#002255" stroke-linecap="round" stroke-linejoin="round"/>
<path d="M122.93 56.8259C123.352 56.8259 123.694 56.5219 123.694 56.1467C123.694 55.7716 123.352 55.4675 122.93 55.4675C122.508 55.4675 122.166 55.7716 122.166 56.1467C122.166 56.5219 122.508 56.8259 122.93 56.8259Z" fill="#0065FF" stroke="#002255" stroke-linecap="round" stroke-linejoin="round"/>
<path d="M124.937 56.8259C125.359 56.8259 125.701 56.5219 125.701 56.1467C125.701 55.7716 125.359 55.4675 124.937 55.4675C124.515 55.4675 124.173 55.7716 124.173 56.1467C124.173 56.5219 124.515 56.8259 124.937 56.8259Z" fill="#0065FF" stroke="#002255" stroke-linecap="round" stroke-linejoin="round"/>
<path d="M126.94 56.8259C127.362 56.8259 127.704 56.5219 127.704 56.1467C127.704 55.7716 127.362 55.4675 126.94 55.4675C126.518 55.4675 126.176 55.7716 126.176 56.1467C126.176 56.5219 126.518 56.8259 126.94 56.8259Z" fill="#0065FF" stroke="#002255" stroke-linecap="round" stroke-linejoin="round"/>
<path d="M128.943 56.8259C129.365 56.8259 129.707 56.5219 129.707 56.1467C129.707 55.7716 129.365 55.4675 128.943 55.4675C128.521 55.4675 128.179 55.7716 128.179 56.1467C128.179 56.5219 128.521 56.8259 128.943 56.8259Z" fill="#0065FF" stroke="#002255" stroke-linecap="round" stroke-linejoin="round"/>
<path d="M130.946 56.8259C131.368 56.8259 131.71 56.5219 131.71 56.1467C131.71 55.7716 131.368 55.4675 130.946 55.4675C130.524 55.4675 130.182 55.7716 130.182 56.1467C130.182 56.5219 130.524 56.8259 130.946 56.8259Z" fill="#0065FF" stroke="#002255" stroke-linecap="round" stroke-linejoin="round"/>
<path d="M121.835 54.6226V56.3408H131.987V54.6226H121.835Z" fill="#0065FF" stroke="#002255" stroke-linecap="round" stroke-linejoin="round"/>
<path d="M121.869 55.5115H131.95" stroke="#002255" stroke-linecap="round" stroke-linejoin="round"/>
<path d="M122.93 18.2837C123.352 18.2837 123.694 17.9796 123.694 17.6045C123.694 17.2294 123.352 16.9253 122.93 16.9253C122.508 16.9253 122.166 17.2294 122.166 17.6045C122.166 17.9796 122.508 18.2837 122.93 18.2837Z" fill="#0065FF" stroke="#002255" stroke-linecap="round" stroke-linejoin="round"/>
<path d="M124.937 18.2837C125.359 18.2837 125.701 17.9796 125.701 17.6045C125.701 17.2294 125.359 16.9253 124.937 16.9253C124.515 16.9253 124.173 17.2294 124.173 17.6045C124.173 17.9796 124.515 18.2837 124.937 18.2837Z" fill="#0065FF" stroke="#002255" stroke-linecap="round" stroke-linejoin="round"/>
<path d="M126.94 18.2837C127.362 18.2837 127.704 17.9796 127.704 17.6045C127.704 17.2294 127.362 16.9253 126.94 16.9253C126.518 16.9253 126.176 17.2294 126.176 17.6045C126.176 17.9796 126.518 18.2837 126.94 18.2837Z" fill="#0065FF" stroke="#002255" stroke-linecap="round" stroke-linejoin="round"/>
<path d="M128.943 18.2837C129.365 18.2837 129.707 17.9796 129.707 17.6045C129.707 17.2294 129.365 16.9253 128.943 16.9253C128.521 16.9253 128.179 17.2294 128.179 17.6045C128.179 17.9796 128.521 18.2837 128.943 18.2837Z" fill="#0065FF" stroke="#002255" stroke-linecap="round" stroke-linejoin="round"/>
<path d="M130.946 18.2837C131.368 18.2837 131.71 17.9796 131.71 17.6045C131.71 17.2294 131.368 16.9253 130.946 16.9253C130.524 16.9253 130.182 17.2294 130.182 17.6045C130.182 17.9796 130.524 18.2837 130.946 18.2837Z" fill="#0065FF" stroke="#002255" stroke-linecap="round" stroke-linejoin="round"/>
<path d="M122.93 19.6421C123.352 19.6421 123.694 19.338 123.694 18.9629C123.694 18.5878 123.352 18.2837 122.93 18.2837C122.508 18.2837 122.166 18.5878 122.166 18.9629C122.166 19.338 122.508 19.6421 122.93 19.6421Z" fill="#0065FF" stroke="#002255" stroke-linecap="round" stroke-linejoin="round"/>
<path d="M124.937 19.6421C125.359 19.6421 125.701 19.338 125.701 18.9629C125.701 18.5878 125.359 18.2837 124.937 18.2837C124.515 18.2837 124.173 18.5878 124.173 18.9629C124.173 19.338 124.515 19.6421 124.937 19.6421Z" fill="#0065FF" stroke="#002255" stroke-linecap="round" stroke-linejoin="round"/>
<path d="M126.94 19.6421C127.362 19.6421 127.704 19.338 127.704 18.9629C127.704 18.5878 127.362 18.2837 126.94 18.2837C126.518 18.2837 126.176 18.5878 126.176 18.9629C126.176 19.338 126.518 19.6421 126.94 19.6421Z" fill="#0065FF" stroke="#002255" stroke-linecap="round" stroke-linejoin="round"/>
<path d="M128.943 19.6421C129.365 19.6421 129.707 19.338 129.707 18.9629C129.707 18.5878 129.365 18.2837 128.943 18.2837C128.521 18.2837 128.179 18.5878 128.179 18.9629C128.179 19.338 128.521 19.6421 128.943 19.6421Z" fill="#0065FF" stroke="#002255" stroke-linecap="round" stroke-linejoin="round"/>
<path d="M130.946 19.6421C131.368 19.6421 131.71 19.338 131.71 18.9629C131.71 18.5878 131.368 18.2837 130.946 18.2837C130.524 18.2837 130.182 18.5878 130.182 18.9629C130.182 19.338 130.524 19.6421 130.946 19.6421Z" fill="#0065FF" stroke="#002255" stroke-linecap="round" stroke-linejoin="round"/>
<path d="M121.835 17.4393V19.1575H131.987V17.4393H121.835Z" fill="#0065FF" stroke="#002255" stroke-linecap="round" stroke-linejoin="round"/>
<path d="M121.869 18.3276H131.95" stroke="#002255" stroke-linecap="round" stroke-linejoin="round"/>
<path d="M122.93 70.4502C123.352 70.4502 123.694 70.1461 123.694 69.771C123.694 69.3959 123.352 69.0918 122.93 69.0918C122.508 69.0918 122.166 69.3959 122.166 69.771C122.166 70.1461 122.508 70.4502 122.93 70.4502Z" fill="#0065FF" stroke="#002255" stroke-linecap="round" stroke-linejoin="round"/>
<path d="M124.937 70.4502C125.359 70.4502 125.701 70.1461 125.701 69.771C125.701 69.3959 125.359 69.0918 124.937 69.0918C124.515 69.0918 124.173 69.3959 124.173 69.771C124.173 70.1461 124.515 70.4502 124.937 70.4502Z" fill="#0065FF" stroke="#002255" stroke-linecap="round" stroke-linejoin="round"/>
<path d="M126.94 70.4502C127.362 70.4502 127.704 70.1461 127.704 69.771C127.704 69.3959 127.362 69.0918 126.94 69.0918C126.518 69.0918 126.176 69.3959 126.176 69.771C126.176 70.1461 126.518 70.4502 126.94 70.4502Z" fill="#0065FF" stroke="#002255" stroke-linecap="round" stroke-linejoin="round"/>
<path d="M128.943 70.4502C129.365 70.4502 129.707 70.1461 129.707 69.771C129.707 69.3959 129.365 69.0918 128.943 69.0918C128.521 69.0918 128.179 69.3959 128.179 69.771C128.179 70.1461 128.521 70.4502 128.943 70.4502Z" fill="#0065FF" stroke="#002255" stroke-linecap="round" stroke-linejoin="round"/>
<path d="M130.946 70.4502C131.368 70.4502 131.71 70.1461 131.71 69.771C131.71 69.3959 131.368 69.0918 130.946 69.0918C130.524 69.0918 130.182 69.3959 130.182 69.771C130.182 70.1461 130.524 70.4502 130.946 70.4502Z" fill="#0065FF" stroke="#002255" stroke-linecap="round" stroke-linejoin="round"/>
<path d="M122.93 71.8123C123.352 71.8123 123.694 71.5082 123.694 71.1331C123.694 70.7579 123.352 70.4539 122.93 70.4539C122.508 70.4539 122.166 70.7579 122.166 71.1331C122.166 71.5082 122.508 71.8123 122.93 71.8123Z" fill="#0065FF" stroke="#002255" stroke-linecap="round" stroke-linejoin="round"/>
<path d="M124.937 71.8123C125.359 71.8123 125.701 71.5082 125.701 71.1331C125.701 70.7579 125.359 70.4539 124.937 70.4539C124.515 70.4539 124.173 70.7579 124.173 71.1331C124.173 71.5082 124.515 71.8123 124.937 71.8123Z" fill="#0065FF" stroke="#002255" stroke-linecap="round" stroke-linejoin="round"/>
<path d="M126.94 71.8123C127.362 71.8123 127.704 71.5082 127.704 71.1331C127.704 70.7579 127.362 70.4539 126.94 70.4539C126.518 70.4539 126.176 70.7579 126.176 71.1331C126.176 71.5082 126.518 71.8123 126.94 71.8123Z" fill="#0065FF" stroke="#002255" stroke-linecap="round" stroke-linejoin="round"/>
<path d="M128.943 71.8123C129.365 71.8123 129.707 71.5082 129.707 71.1331C129.707 70.7579 129.365 70.4539 128.943 70.4539C128.521 70.4539 128.179 70.7579 128.179 71.1331C128.179 71.5082 128.521 71.8123 128.943 71.8123Z" fill="#0065FF" stroke="#002255" stroke-linecap="round" stroke-linejoin="round"/>
<path d="M130.946 71.8123C131.368 71.8123 131.71 71.5082 131.71 71.1331C131.71 70.7579 131.368 70.4539 130.946 70.4539C130.524 70.4539 130.182 70.7579 130.182 71.1331C130.182 71.5082 130.524 71.8123 130.946 71.8123Z" fill="#0065FF" stroke="#002255" stroke-linecap="round" stroke-linejoin="round"/>
<path d="M121.831 69.6097V71.3279H131.983V69.6097H121.831Z" fill="#0065FF" stroke="#002255" stroke-linecap="round" stroke-linejoin="round"/>
<path d="M121.869 70.498H131.95" stroke="#002255" stroke-linecap="round" stroke-linejoin="round"/>
<path d="M124.636 47.9078C128.913 47.9078 132.38 43.5633 132.38 38.2042C132.38 32.8451 128.913 28.5007 124.636 28.5007C120.359 28.5007 116.892 32.8451 116.892 38.2042C116.892 43.5633 120.359 47.9078 124.636 47.9078Z" fill="#0065FF" stroke="#002255" stroke-linecap="round" stroke-linejoin="round"/>
<path d="M122.273 47.9078C126.55 47.9078 130.017 43.5633 130.017 38.2042C130.017 32.8451 126.55 28.5007 122.273 28.5007C117.996 28.5007 114.529 32.8451 114.529 38.2042C114.529 43.5633 117.996 47.9078 122.273 47.9078Z" fill="#0065FF" stroke="#002255" stroke-linecap="round" stroke-linejoin="round"/>
<path d="M121.311 32.822H117.226V36.398C116.863 37.6316 116.863 38.9276 117.226 40.1612V43.7371H121.311C123.715 43.7371 125.664 41.2956 125.664 38.2814C125.664 35.2672 123.715 32.822 121.311 32.822Z" fill="#0065FF" stroke="#002255" stroke-linecap="round" stroke-linejoin="round"/>
<path d="M117.226 43.7371C119.631 43.7371 121.579 41.2945 121.579 38.2814C121.579 35.2683 119.631 32.8257 117.226 32.8257C114.822 32.8257 112.873 35.2683 112.873 38.2814C112.873 41.2945 114.822 43.7371 117.226 43.7371Z" fill="#0065FF" stroke="#002255" stroke-linecap="round" stroke-linejoin="round"/>
<path d="M257.004 80.198H247.521V92.4091H257.004V80.198Z" fill="#0065FF" stroke="#002255" stroke-linecap="round" stroke-linejoin="round"/>
<path d="M261.584 75.5459H242.289V86.3031H261.584V75.5459Z" fill="#0065FF" stroke="#002255" stroke-linecap="round" stroke-linejoin="round"/>
<path d="M252.097 79.2545C258.012 79.2545 262.807 74.9923 262.807 69.7345C262.807 64.4768 258.012 60.2146 252.097 60.2146C246.183 60.2146 241.388 64.4768 241.388 69.7345C241.388 74.9923 246.183 79.2545 252.097 79.2545Z" fill="#0065FF" stroke="#002255" stroke-linecap="round" stroke-linejoin="round"/>
<path d="M252.097 84.2696C261.128 84.2696 268.448 77.762 268.448 69.7345C268.448 61.707 261.128 55.1995 252.097 55.1995C243.067 55.1995 235.747 61.707 235.747 69.7345C235.747 77.762 243.067 84.2696 252.097 84.2696Z" stroke="#002255" stroke-width="4" stroke-linecap="round" stroke-linejoin="round"/>
<path d="M254.765 69.7343C254.766 69.265 254.611 68.8061 254.318 68.4156C254.025 68.0251 253.609 67.7206 253.121 67.5405C252.634 67.3604 252.097 67.3129 251.579 67.404C251.062 67.4951 250.586 67.7207 250.212 68.0523C249.839 68.3838 249.584 68.8064 249.481 69.2666C249.378 69.7267 249.43 70.2038 249.632 70.6374C249.834 71.071 250.176 71.4416 250.615 71.7024C251.054 71.9631 251.57 72.1023 252.097 72.1023C252.804 72.1023 253.482 71.853 253.983 71.409C254.483 70.965 254.764 70.3627 254.765 69.7343Z" stroke="#002255" stroke-width="4" stroke-linecap="round" stroke-linejoin="round"/>
<path d="M252.097 55.1995V83.9759" stroke="#002255" stroke-width="4" stroke-linecap="round" stroke-linejoin="round"/>
<path d="M235.747 69.7341H268.448" stroke="#002255" stroke-width="4" stroke-linecap="round" stroke-linejoin="round"/>
<path d="M2.32812 90.1768H264.413C273.489 90.1874 282.19 93.3971 288.607 99.102C295.025 104.807 298.635 112.541 298.647 120.609V159.742H270.976V120.609C270.975 119.062 270.283 117.579 269.053 116.485C267.822 115.391 266.154 114.776 264.413 114.775H2.32812" fill="#0065FF"/>
<path d="M2.32812 90.1768H264.413C273.489 90.1874 282.19 93.3971 288.607 99.102C295.025 104.807 298.635 112.541 298.647 120.609V159.742H270.976V120.609C270.975 119.062 270.283 117.579 269.053 116.485C267.822 115.391 266.154 114.776 264.413 114.775H2.32812" stroke="#002255" stroke-linecap="round" stroke-linejoin="round"/>
<path d="M125.077 112.345H132.227" stroke="#002255" stroke-linecap="round" stroke-linejoin="round"/>
<path d="M97.3855 112.345H123.244" stroke="#002255" stroke-linecap="round" stroke-linejoin="round"/>
<path d="M221.221 112.345H228.37" stroke="#002255" stroke-linecap="round" stroke-linejoin="round"/>
<path d="M154.785 112.345H219.388" stroke="#002255" stroke-linecap="round" stroke-linejoin="round"/>
<path d="M243.804 91.2412C243.805 91.6966 243.654 92.142 243.37 92.5211C243.086 92.9001 242.682 93.1957 242.209 93.3705C241.736 93.5453 241.215 93.5914 240.712 93.503C240.21 93.4146 239.748 93.1957 239.385 92.8739C239.023 92.5521 238.776 92.1419 238.675 91.6953C238.575 91.2487 238.626 90.7856 238.822 90.3648C239.018 89.9439 239.35 89.5842 239.776 89.3311C240.202 89.078 240.702 88.9429 241.215 88.9429C241.901 88.9429 242.559 89.1849 243.044 89.6158C243.53 90.0467 243.803 90.6313 243.804 91.2412Z" fill="#0065FF" stroke="#002255" stroke-linecap="round" stroke-linejoin="round"/>
<path d="M243.804 97.2663C243.804 97.7216 243.652 98.1667 243.368 98.5452C243.083 98.9238 242.679 99.2188 242.206 99.3931C241.733 99.5673 241.212 99.6129 240.71 99.5241C240.207 99.4352 239.746 99.216 239.384 98.8941C239.022 98.5721 238.775 98.162 238.675 97.7154C238.575 97.2689 238.626 96.806 238.822 96.3854C239.018 95.9648 239.35 95.6053 239.776 95.3523C240.202 95.0994 240.703 94.9644 241.215 94.9644C241.902 94.9644 242.56 95.2069 243.046 95.6386C243.532 96.0703 243.804 96.6558 243.804 97.2663Z" fill="#0065FF" stroke="#002255" stroke-linecap="round" stroke-linejoin="round"/>
<path d="M243.804 103.288C243.805 103.743 243.654 104.188 243.37 104.567C243.086 104.947 242.682 105.242 242.209 105.417C241.736 105.592 241.215 105.638 240.712 105.549C240.21 105.461 239.748 105.242 239.385 104.92C239.023 104.598 238.776 104.188 238.675 103.742C238.575 103.295 238.626 102.832 238.822 102.411C239.018 101.99 239.35 101.631 239.776 101.377C240.202 101.124 240.702 100.989 241.215 100.989C241.901 100.989 242.559 101.231 243.044 101.662C243.53 102.093 243.803 102.678 243.804 103.288Z" fill="#0065FF" stroke="#002255" stroke-linecap="round" stroke-linejoin="round"/>
<path d="M243.804 109.312C243.804 109.767 243.652 110.212 243.368 110.591C243.083 110.969 242.679 111.264 242.206 111.439C241.733 111.613 241.212 111.659 240.71 111.57C240.207 111.481 239.746 111.262 239.384 110.94C239.022 110.618 238.775 110.208 238.675 109.761C238.575 109.315 238.626 108.852 238.822 108.431C239.018 108.01 239.35 107.651 239.776 107.398C240.202 107.145 240.703 107.01 241.215 107.01C241.902 107.01 242.56 107.253 243.046 107.684C243.532 108.116 243.804 108.701 243.804 109.312Z" fill="#0065FF" stroke="#002255" stroke-linecap="round" stroke-linejoin="round"/>
<path d="M243.804 115.334C243.804 115.789 243.652 116.234 243.368 116.613C243.083 116.991 242.679 117.286 242.206 117.461C241.733 117.635 241.212 117.681 240.71 117.592C240.207 117.503 239.746 117.284 239.384 116.962C239.022 116.64 238.775 116.23 238.675 115.783C238.575 115.336 238.626 114.874 238.822 114.453C239.018 114.032 239.35 113.673 239.776 113.42C240.202 113.167 240.703 113.032 241.215 113.032C241.902 113.032 242.56 113.275 243.046 113.706C243.532 114.138 243.804 114.723 243.804 115.334Z" fill="#0065FF" stroke="#002255" stroke-linecap="round" stroke-linejoin="round"/>
<path d="M236.04 93.5431C237.47 93.5431 238.629 92.5125 238.629 91.2412C238.629 89.9698 237.47 88.9392 236.04 88.9392C234.61 88.9392 233.45 89.9698 233.45 91.2412C233.45 92.5125 234.61 93.5431 236.04 93.5431Z" fill="#0065FF" stroke="#002255" stroke-linecap="round" stroke-linejoin="round"/>
<path d="M236.04 99.5683C237.47 99.5683 238.629 98.5377 238.629 97.2663C238.629 95.995 237.47 94.9644 236.04 94.9644C234.61 94.9644 233.45 95.995 233.45 97.2663C233.45 98.5377 234.61 99.5683 236.04 99.5683Z" fill="#0065FF" stroke="#002255" stroke-linecap="round" stroke-linejoin="round"/>
<path d="M236.04 105.59C237.47 105.59 238.629 104.559 238.629 103.288C238.629 102.016 237.47 100.986 236.04 100.986C234.61 100.986 233.45 102.016 233.45 103.288C233.45 104.559 234.61 105.59 236.04 105.59Z" fill="#0065FF" stroke="#002255" stroke-linecap="round" stroke-linejoin="round"/>
<path d="M236.04 111.614C237.47 111.614 238.629 110.583 238.629 109.312C238.629 108.041 237.47 107.01 236.04 107.01C234.61 107.01 233.45 108.041 233.45 109.312C233.45 110.583 234.61 111.614 236.04 111.614Z" fill="#0065FF" stroke="#002255" stroke-linecap="round" stroke-linejoin="round"/>
<path d="M236.04 117.636C237.47 117.636 238.629 116.605 238.629 115.334C238.629 114.063 237.47 113.032 236.04 113.032C234.61 113.032 233.45 114.063 233.45 115.334C233.45 116.605 234.61 117.636 236.04 117.636Z" fill="#0065FF" stroke="#002255" stroke-linecap="round" stroke-linejoin="round"/>
<path d="M241.847 87.9407H235.305V118.465H241.847V87.9407Z" fill="#0065FF" stroke="#002255" stroke-linecap="round" stroke-linejoin="round"/>
<path d="M238.46 88.0479V118.359" stroke="#002255" stroke-linecap="round" stroke-linejoin="round"/>
<path d="M266.4 93.5431C267.83 93.5431 268.989 92.5125 268.989 91.2412C268.989 89.9698 267.83 88.9392 266.4 88.9392C264.97 88.9392 263.81 89.9698 263.81 91.2412C263.81 92.5125 264.97 93.5431 266.4 93.5431Z" fill="#0065FF" stroke="#002255" stroke-linecap="round" stroke-linejoin="round"/>
<path d="M266.4 99.5683C267.83 99.5683 268.989 98.5377 268.989 97.2663C268.989 95.995 267.83 94.9644 266.4 94.9644C264.97 94.9644 263.81 95.995 263.81 97.2663C263.81 98.5377 264.97 99.5683 266.4 99.5683Z" fill="#0065FF" stroke="#002255" stroke-linecap="round" stroke-linejoin="round"/>
<path d="M266.4 105.59C267.83 105.59 268.989 104.559 268.989 103.288C268.989 102.016 267.83 100.986 266.4 100.986C264.97 100.986 263.81 102.016 263.81 103.288C263.81 104.559 264.97 105.59 266.4 105.59Z" fill="#0065FF" stroke="#002255" stroke-linecap="round" stroke-linejoin="round"/>
<path d="M266.4 111.614C267.83 111.614 268.989 110.583 268.989 109.312C268.989 108.041 267.83 107.01 266.4 107.01C264.97 107.01 263.81 108.041 263.81 109.312C263.81 110.583 264.97 111.614 266.4 111.614Z" fill="#0065FF" stroke="#002255" stroke-linecap="round" stroke-linejoin="round"/>
<path d="M266.4 117.636C267.83 117.636 268.989 116.605 268.989 115.334C268.989 114.063 267.83 113.032 266.4 113.032C264.97 113.032 263.81 114.063 263.81 115.334C263.81 116.605 264.97 117.636 266.4 117.636Z" fill="#0065FF" stroke="#002255" stroke-linecap="round" stroke-linejoin="round"/>
<path d="M263.815 91.2412C263.815 91.6966 263.664 92.142 263.38 92.5211C263.096 92.9001 262.692 93.1957 262.219 93.3705C261.746 93.5453 261.225 93.5914 260.722 93.503C260.22 93.4146 259.758 93.1957 259.395 92.8739C259.033 92.5521 258.786 92.1419 258.686 91.6953C258.585 91.2487 258.636 90.7856 258.832 90.3648C259.028 89.9439 259.36 89.5842 259.786 89.3311C260.212 89.078 260.713 88.9429 261.225 88.9429C261.911 88.9429 262.569 89.1849 263.055 89.6158C263.54 90.0467 263.813 90.6313 263.815 91.2412Z" fill="#0065FF" stroke="#002255" stroke-linecap="round" stroke-linejoin="round"/>
<path d="M263.815 97.2663C263.815 97.7216 263.663 98.1667 263.378 98.5452C263.094 98.9238 262.689 99.2188 262.216 99.3931C261.743 99.5673 261.222 99.6129 260.72 99.5241C260.218 99.4352 259.756 99.216 259.394 98.8941C259.032 98.5721 258.785 98.162 258.685 97.7154C258.585 97.2689 258.637 96.806 258.833 96.3854C259.029 95.9648 259.361 95.6053 259.786 95.3523C260.212 95.0994 260.713 94.9644 261.225 94.9644C261.912 94.9644 262.57 95.2069 263.056 95.6386C263.542 96.0703 263.815 96.6558 263.815 97.2663Z" fill="#0065FF" stroke="#002255" stroke-linecap="round" stroke-linejoin="round"/>
<path d="M263.815 103.288C263.815 103.743 263.664 104.188 263.38 104.567C263.096 104.947 262.692 105.242 262.219 105.417C261.746 105.592 261.225 105.638 260.722 105.549C260.22 105.461 259.758 105.242 259.395 104.92C259.033 104.598 258.786 104.188 258.686 103.742C258.585 103.295 258.636 102.832 258.832 102.411C259.028 101.99 259.36 101.631 259.786 101.377C260.212 101.124 260.713 100.989 261.225 100.989C261.911 100.989 262.569 101.231 263.055 101.662C263.54 102.093 263.813 102.678 263.815 103.288Z" fill="#0065FF" stroke="#002255" stroke-linecap="round" stroke-linejoin="round"/>
<path d="M263.815 109.312C263.815 109.767 263.663 110.212 263.378 110.591C263.094 110.969 262.689 111.264 262.216 111.439C261.743 111.613 261.222 111.659 260.72 111.57C260.218 111.481 259.756 111.262 259.394 110.94C259.032 110.618 258.785 110.208 258.685 109.761C258.585 109.315 258.637 108.852 258.833 108.431C259.029 108.01 259.361 107.651 259.786 107.398C260.212 107.145 260.713 107.01 261.225 107.01C261.912 107.01 262.57 107.253 263.056 107.684C263.542 108.116 263.815 108.701 263.815 109.312Z" fill="#0065FF" stroke="#002255" stroke-linecap="round" stroke-linejoin="round"/>
<path d="M263.815 115.334C263.815 115.789 263.663 116.234 263.378 116.613C263.094 116.991 262.689 117.286 262.216 117.461C261.743 117.635 261.222 117.681 260.72 117.592C260.218 117.503 259.756 117.284 259.394 116.962C259.032 116.64 258.785 116.23 258.685 115.783C258.585 115.336 258.637 114.874 258.833 114.453C259.029 114.032 259.361 113.673 259.786 113.42C260.212 113.167 260.713 113.032 261.225 113.032C261.912 113.032 262.57 113.275 263.056 113.706C263.542 114.138 263.815 114.723 263.815 115.334Z" fill="#0065FF" stroke="#002255" stroke-linecap="round" stroke-linejoin="round"/>
<path d="M267.032 87.9407H260.49V118.465H267.032V87.9407Z" fill="#0065FF" stroke="#002255" stroke-linecap="round" stroke-linejoin="round"/>
<path d="M263.649 88.0479V118.359" stroke="#002255" stroke-linecap="round" stroke-linejoin="round"/>
<path d="M146.31 93.5431C147.74 93.5431 148.9 92.5125 148.9 91.2412C148.9 89.9698 147.74 88.9392 146.31 88.9392C144.88 88.9392 143.721 89.9698 143.721 91.2412C143.721 92.5125 144.88 93.5431 146.31 93.5431Z" fill="#0065FF" stroke="#002255" stroke-linecap="round" stroke-linejoin="round"/>
<path d="M146.31 99.5683C147.74 99.5683 148.9 98.5377 148.9 97.2663C148.9 95.995 147.74 94.9644 146.31 94.9644C144.88 94.9644 143.721 95.995 143.721 97.2663C143.721 98.5377 144.88 99.5683 146.31 99.5683Z" fill="#0065FF" stroke="#002255" stroke-linecap="round" stroke-linejoin="round"/>
<path d="M146.31 105.59C147.74 105.59 148.9 104.559 148.9 103.288C148.9 102.016 147.74 100.986 146.31 100.986C144.88 100.986 143.721 102.016 143.721 103.288C143.721 104.559 144.88 105.59 146.31 105.59Z" fill="#0065FF" stroke="#002255" stroke-linecap="round" stroke-linejoin="round"/>
<path d="M146.31 111.614C147.74 111.614 148.9 110.583 148.9 109.312C148.9 108.041 147.74 107.01 146.31 107.01C144.88 107.01 143.721 108.041 143.721 109.312C143.721 110.583 144.88 111.614 146.31 111.614Z" fill="#0065FF" stroke="#002255" stroke-linecap="round" stroke-linejoin="round"/>
<path d="M146.31 117.636C147.74 117.636 148.9 116.605 148.9 115.334C148.9 114.063 147.74 113.032 146.31 113.032C144.88 113.032 143.721 114.063 143.721 115.334C143.721 116.605 144.88 117.636 146.31 117.636Z" fill="#0065FF" stroke="#002255" stroke-linecap="round" stroke-linejoin="round"/>
<path d="M143.721 91.2412C143.722 91.6968 143.57 92.1423 143.286 92.5215C143.002 92.9006 142.598 93.1962 142.124 93.3709C141.651 93.5456 141.13 93.5915 140.627 93.5028C140.124 93.4141 139.663 93.1947 139.3 92.8726C138.938 92.5504 138.691 92.1399 138.591 91.693C138.492 91.2461 138.543 90.783 138.74 90.3622C138.936 89.9414 139.269 89.582 139.695 89.3293C140.122 89.0766 140.623 88.9421 141.135 88.9429C141.821 88.9438 142.478 89.1863 142.962 89.6171C143.447 90.0479 143.72 90.6319 143.721 91.2412Z" fill="#0065FF" stroke="#002255" stroke-linecap="round" stroke-linejoin="round"/>
<path d="M143.721 97.2663C143.721 97.7218 143.569 98.167 143.284 98.5456C142.999 98.9243 142.595 99.2193 142.121 99.3934C141.648 99.5675 141.127 99.6129 140.625 99.5238C140.122 99.4347 139.661 99.2151 139.299 98.8928C138.937 98.5705 138.69 98.1599 138.591 97.7132C138.492 97.2664 138.543 96.8034 138.74 96.3829C138.937 95.9623 139.269 95.603 139.696 95.3505C140.122 95.098 140.623 94.9636 141.135 94.9644C141.475 94.9644 141.812 95.0239 142.126 95.1397C142.44 95.2554 142.725 95.425 142.965 95.6388C143.205 95.8526 143.396 96.1064 143.525 96.3857C143.655 96.6649 143.721 96.9642 143.721 97.2663Z" fill="#0065FF" stroke="#002255" stroke-linecap="round" stroke-linejoin="round"/>
<path d="M143.721 103.288C143.722 103.743 143.57 104.189 143.286 104.568C143.002 104.947 142.598 105.243 142.124 105.417C141.651 105.592 141.13 105.638 140.627 105.549C140.124 105.46 139.663 105.241 139.3 104.919C138.938 104.597 138.691 104.186 138.591 103.739C138.492 103.293 138.543 102.829 138.74 102.409C138.936 101.988 139.269 101.628 139.695 101.376C140.122 101.123 140.623 100.989 141.135 100.989C141.821 100.99 142.478 101.233 142.962 101.663C143.447 102.094 143.72 102.678 143.721 103.288Z" fill="#0065FF" stroke="#002255" stroke-linecap="round" stroke-linejoin="round"/>
<path d="M143.721 109.312C143.721 109.767 143.569 110.213 143.284 110.591C142.999 110.97 142.595 111.265 142.121 111.439C141.648 111.613 141.127 111.659 140.625 111.569C140.122 111.48 139.661 111.261 139.299 110.938C138.937 110.616 138.69 110.206 138.591 109.759C138.492 109.312 138.543 108.849 138.74 108.429C138.937 108.008 139.269 107.649 139.696 107.396C140.122 107.144 140.623 107.009 141.135 107.01C141.475 107.01 141.812 107.07 142.126 107.185C142.44 107.301 142.725 107.471 142.965 107.684C143.205 107.898 143.396 108.152 143.525 108.431C143.655 108.711 143.721 109.01 143.721 109.312Z" fill="#0065FF" stroke="#002255" stroke-linecap="round" stroke-linejoin="round"/>
<path d="M143.721 115.334C143.721 115.789 143.569 116.235 143.284 116.613C142.999 116.992 142.595 117.287 142.121 117.461C141.648 117.635 141.127 117.681 140.625 117.591C140.122 117.502 139.661 117.283 139.299 116.96C138.937 116.638 138.69 116.228 138.591 115.781C138.492 115.334 138.543 114.871 138.74 114.45C138.937 114.03 139.269 113.671 139.696 113.418C140.122 113.166 140.623 113.031 141.135 113.032C141.822 113.033 142.479 113.276 142.964 113.708C143.449 114.139 143.721 114.724 143.721 115.334Z" fill="#0065FF" stroke="#002255" stroke-linecap="round" stroke-linejoin="round"/>
<path d="M146.938 87.9407H140.396V118.465H146.938V87.9407Z" fill="#0065FF" stroke="#002255" stroke-linecap="round" stroke-linejoin="round"/>
<path d="M143.555 88.0479V118.359" stroke="#002255" stroke-linecap="round" stroke-linejoin="round"/>
<path d="M54.8832 93.5431C56.3134 93.5431 57.4728 92.5125 57.4728 91.2412C57.4728 89.9698 56.3134 88.9392 54.8832 88.9392C53.4531 88.9392 52.2937 89.9698 52.2937 91.2412C52.2937 92.5125 53.4531 93.5431 54.8832 93.5431Z" fill="#0065FF" stroke="#002255" stroke-linecap="round" stroke-linejoin="round"/>
<path d="M54.8832 99.5683C56.3134 99.5683 57.4728 98.5377 57.4728 97.2663C57.4728 95.995 56.3134 94.9644 54.8832 94.9644C53.4531 94.9644 52.2937 95.995 52.2937 97.2663C52.2937 98.5377 53.4531 99.5683 54.8832 99.5683Z" fill="#0065FF" stroke="#002255" stroke-linecap="round" stroke-linejoin="round"/>
<path d="M54.8832 105.59C56.3134 105.59 57.4728 104.559 57.4728 103.288C57.4728 102.016 56.3134 100.986 54.8832 100.986C53.4531 100.986 52.2937 102.016 52.2937 103.288C52.2937 104.559 53.4531 105.59 54.8832 105.59Z" fill="#0065FF" stroke="#002255" stroke-linecap="round" stroke-linejoin="round"/>
<path d="M54.8832 111.614C56.3134 111.614 57.4728 110.583 57.4728 109.312C57.4728 108.041 56.3134 107.01 54.8832 107.01C53.4531 107.01 52.2937 108.041 52.2937 109.312C52.2937 110.583 53.4531 111.614 54.8832 111.614Z" fill="#0065FF" stroke="#002255" stroke-linecap="round" stroke-linejoin="round"/>
<path d="M54.8832 117.636C56.3134 117.636 57.4728 116.605 57.4728 115.334C57.4728 114.063 56.3134 113.032 54.8832 113.032C53.4531 113.032 52.2937 114.063 52.2937 115.334C52.2937 116.605 53.4531 117.636 54.8832 117.636Z" fill="#0065FF" stroke="#002255" stroke-linecap="round" stroke-linejoin="round"/>
<path d="M49.708 93.5431C51.1381 93.5431 52.2975 92.5125 52.2975 91.2412C52.2975 89.9698 51.1381 88.9392 49.708 88.9392C48.2778 88.9392 47.1184 89.9698 47.1184 91.2412C47.1184 92.5125 48.2778 93.5431 49.708 93.5431Z" fill="#0065FF" stroke="#002255" stroke-linecap="round" stroke-linejoin="round"/>
<path d="M49.708 99.5683C51.1381 99.5683 52.2975 98.5377 52.2975 97.2663C52.2975 95.995 51.1381 94.9644 49.708 94.9644C48.2778 94.9644 47.1184 95.995 47.1184 97.2663C47.1184 98.5377 48.2778 99.5683 49.708 99.5683Z" fill="#0065FF" stroke="#002255" stroke-linecap="round" stroke-linejoin="round"/>
<path d="M49.708 105.59C51.1381 105.59 52.2975 104.559 52.2975 103.288C52.2975 102.016 51.1381 100.986 49.708 100.986C48.2778 100.986 47.1184 102.016 47.1184 103.288C47.1184 104.559 48.2778 105.59 49.708 105.59Z" fill="#0065FF" stroke="#002255" stroke-linecap="round" stroke-linejoin="round"/>
<path d="M49.708 111.614C51.1381 111.614 52.2975 110.583 52.2975 109.312C52.2975 108.041 51.1381 107.01 49.708 107.01C48.2778 107.01 47.1184 108.041 47.1184 109.312C47.1184 110.583 48.2778 111.614 49.708 111.614Z" fill="#0065FF" stroke="#002255" stroke-linecap="round" stroke-linejoin="round"/>
<path d="M49.708 117.636C51.1381 117.636 52.2975 116.605 52.2975 115.334C52.2975 114.063 51.1381 113.032 49.708 113.032C48.2778 113.032 47.1184 114.063 47.1184 115.334C47.1184 116.605 48.2778 117.636 49.708 117.636Z" fill="#0065FF" stroke="#002255" stroke-linecap="round" stroke-linejoin="round"/>
<path d="M55.5152 87.9407H48.9731V118.465H55.5152V87.9407Z" fill="#0065FF" stroke="#002255" stroke-linecap="round" stroke-linejoin="round"/>
<path d="M52.1284 88.0479V118.359" stroke="#002255" stroke-linecap="round" stroke-linejoin="round"/>
</g>
<defs>
<clipPath id="clip0_1_1165">
<rect width="354.667" height="127" fill="white" transform="translate(0.333252)"/>
</clipPath>
</defs>
</svg>
